<svg width="1015" height="847" viewBox="0 0 1015 847" fill="none" xmlns="http://www.w3.org/2000/svg">
<mask id="path-1-inside-1_106_2" fill="white">
<path fill-rule="evenodd" clip-rule="evenodd" d="M567.245 24C564.531 24 561.955 22.8733 559.968 21.0242C545.952 7.9794 527.158 0 506.5 0C485.842 0 467.048 7.9794 453.032 21.0242C451.045 22.8733 448.469 24 445.755 24H123.5C101.132 24 83 42.1325 83 64.5C83 64.8695 82.7161 65.1796 82.3481 65.2135C56.9149 67.56 37 88.9543 37 115V115C37 118.314 34.3137 121 31 121H10C4.47715 121 0 125.477 0 131V759C0 764.523 4.47715 769 10 769H27C32.5228 769 37 773.477 37 779V797C37 824.614 59.3858 847 87 847H445.51C448.895 847 452.009 845.254 454.073 842.571C466.505 826.413 486.037 816 508 816C529.963 816 549.495 826.413 561.927 842.571C563.991 845.254 567.105 847 570.49 847H927C954.614 847 977 824.614 977 797V789C977 783.477 981.477 779 987 779H1005C1010.52 779 1015 774.523 1015 769V127C1015 121.477 1010.52 117 1005 117H979C977.895 117 977 116.105 977 115V115C977 88.9543 957.085 67.56 931.652 65.2135C931.284 65.1796 931 64.8695 931 64.5C931 42.1325 912.868 24 890.5 24H567.245ZM531.384 847C539.851 847 543.801 837.586 536.424 833.43C528.024 828.699 518.327 826 508 826C497.673 826 487.976 828.699 479.576 833.43C472.199 837.586 476.149 847 484.616 847H531.384Z"/>
</mask>
<path fill-rule="evenodd" clip-rule="evenodd" d="M567.245 24C564.531 24 561.955 22.8733 559.968 21.0242C545.952 7.9794 527.158 0 506.5 0C485.842 0 467.048 7.9794 453.032 21.0242C451.045 22.8733 448.469 24 445.755 24H123.5C101.132 24 83 42.1325 83 64.5C83 64.8695 82.7161 65.1796 82.3481 65.2135C56.9149 67.56 37 88.9543 37 115V115C37 118.314 34.3137 121 31 121H10C4.47715 121 0 125.477 0 131V759C0 764.523 4.47715 769 10 769H27C32.5228 769 37 773.477 37 779V797C37 824.614 59.3858 847 87 847H445.51C448.895 847 452.009 845.254 454.073 842.571C466.505 826.413 486.037 816 508 816C529.963 816 549.495 826.413 561.927 842.571C563.991 845.254 567.105 847 570.49 847H927C954.614 847 977 824.614 977 797V789C977 783.477 981.477 779 987 779H1005C1010.52 779 1015 774.523 1015 769V127C1015 121.477 1010.52 117 1005 117H979C977.895 117 977 116.105 977 115V115C977 88.9543 957.085 67.56 931.652 65.2135C931.284 65.1796 931 64.8695 931 64.5C931 42.1325 912.868 24 890.5 24H567.245ZM531.384 847C539.851 847 543.801 837.586 536.424 833.43C528.024 828.699 518.327 826 508 826C497.673 826 487.976 828.699 479.576 833.43C472.199 837.586 476.149 847 484.616 847H531.384Z" fill="url(#paint0_linear_106_2)"/>
<path d="M559.968 21.0242L556.562 24.6843L556.562 24.6843L559.968 21.0242ZM453.032 21.0242L449.626 17.3641L449.626 17.3641L453.032 21.0242ZM82.3481 65.2135L82.8075 70.1924L82.8075 70.1924L82.3481 65.2135ZM931.652 65.2135L931.192 70.1924L931.193 70.1924L931.652 65.2135ZM479.576 833.43L477.122 829.074L479.576 833.43ZM536.424 833.43L533.97 837.787L536.424 833.43ZM561.927 842.571L557.964 845.62L561.927 842.571ZM454.073 842.571L450.111 839.522L454.073 842.571ZM556.562 24.6843C559.367 27.2956 563.129 29 567.245 29V19C565.933 19 564.542 18.451 563.374 17.364L556.562 24.6843ZM506.5 5C525.845 5 543.434 12.4665 556.562 24.6843L563.374 17.3641C548.469 3.49226 528.471 -5 506.5 -5V5ZM456.438 24.6843C469.566 12.4666 487.156 5 506.5 5V-5C484.529 -5 464.531 3.49226 449.626 17.3641L456.438 24.6843ZM445.755 29C449.871 29 453.633 27.2956 456.438 24.6843L449.626 17.3641C448.458 18.451 447.067 19 445.755 19V29ZM123.5 29H445.755V19H123.5V29ZM88 64.5C88 44.8939 103.894 29 123.5 29V19C98.371 19 78 39.371 78 64.5H88ZM82.8075 70.1924C85.7369 69.9221 88 67.464 88 64.5H78C78 62.275 79.6952 60.4371 81.8887 60.2347L82.8075 70.1924ZM42 115C42 91.5617 59.9229 72.3037 82.8075 70.1924L81.8888 60.2347C53.9069 62.8163 32 86.3469 32 115H42ZM10 126H31V116H10V126ZM5 759V131H-5V759H5ZM27 764H10V774H27V764ZM42 797V779H32V797H42ZM87 842C62.1472 842 42 821.853 42 797H32C32 827.376 56.6243 852 87 852V842ZM445.51 842H87V852H445.51V842ZM508 811C484.419 811 463.448 822.186 450.111 839.522L458.036 845.62C469.563 830.639 487.655 821 508 821V811ZM565.889 839.522C552.552 822.186 531.581 811 508 811V821C528.345 821 546.437 830.639 557.964 845.62L565.889 839.522ZM927 842H570.49V852H927V842ZM972 797C972 821.853 951.853 842 927 842V852C957.376 852 982 827.376 982 797H972ZM972 789V797H982V789H972ZM1005 774H987V784H1005V774ZM1010 127V769H1020V127H1010ZM979 122H1005V112H979V122ZM931.193 70.1924C954.077 72.3037 972 91.5617 972 115H982C982 86.3469 960.093 62.8162 932.111 60.2347L931.193 70.1924ZM926 64.5C926 67.4639 928.263 69.9221 931.192 70.1924L932.111 60.2347C934.305 60.4371 936 62.2751 936 64.5H926ZM890.5 29C910.106 29 926 44.8939 926 64.5H936C936 39.371 915.629 19 890.5 19V29ZM567.245 29H890.5V19H567.245V29ZM538.878 829.074C529.748 823.932 519.209 821 508 821V831C517.445 831 526.3 833.466 533.97 837.787L538.878 829.074ZM508 821C496.791 821 486.252 823.932 477.122 829.074L482.03 837.787C489.7 833.466 498.555 831 508 831V821ZM531.384 842H484.616V852H531.384V842ZM477.122 829.074C474.381 830.618 472.359 832.86 471.363 835.591C470.376 838.3 470.533 841.126 471.498 843.595C473.426 848.524 478.478 852 484.616 852V842C482.287 842 481.13 840.769 480.811 839.952C480.653 839.548 480.676 839.241 480.758 839.016C480.832 838.814 481.084 838.32 482.03 837.787L477.122 829.074ZM533.97 837.787C534.916 838.32 535.168 838.814 535.242 839.016C535.324 839.241 535.347 839.548 535.189 839.952C534.87 840.769 533.713 842 531.384 842V852C537.522 852 542.574 848.524 544.502 843.595C545.467 841.126 545.624 838.3 544.637 835.591C543.641 832.86 541.619 830.618 538.878 829.074L533.97 837.787ZM557.964 845.62C560.84 849.357 565.344 852 570.49 852V842C568.866 842 567.142 841.15 565.889 839.522L557.964 845.62ZM979 112C980.657 112 982 113.343 982 115H972C972 118.866 975.134 122 979 122V112ZM27 774C29.7614 774 32 776.239 32 779H42C42 770.716 35.2843 764 27 764V774ZM1020 127C1020 118.716 1013.28 112 1005 112V122C1007.76 122 1010 124.239 1010 127H1020ZM-5 759C-5 767.284 1.71573 774 10 774V764C7.23858 764 5 761.761 5 759H-5ZM445.51 852C450.656 852 455.16 849.357 458.036 845.62L450.111 839.522C448.858 841.15 447.134 842 445.51 842V852ZM1005 784C1013.28 784 1020 777.284 1020 769H1010C1010 771.761 1007.76 774 1005 774V784ZM10 116C1.71572 116 -5 122.716 -5 131H5C5 128.239 7.23858 126 10 126V116ZM982 789C982 786.239 984.239 784 987 784V774C978.716 774 972 780.716 972 789H982ZM32 115C32 115.552 31.5523 116 31 116V126C37.0751 126 42 121.075 42 115H32Z" fill="white" mask="url(#path-1-inside-1_106_2)"/>
<defs>
<linearGradient id="paint0_linear_106_2" x1="507.5" y1="0" x2="507.5" y2="847" gradientUnits="userSpaceOnUse">
<stop stop-color="#4F2C5C"/>
<stop offset="0.73" stop-color="#1D132D"/>
<stop offset="1" stop-color="#1A0A0A"/>
</linearGradient>
</defs>
</svg>
