<svg width="1015" height="404" viewBox="0 0 1015 404" fill="none" xmlns="http://www.w3.org/2000/svg">
<mask id="path-1-inside-1_121_22" fill="white">
<path fill-rule="evenodd" clip-rule="evenodd" d="M83 19.8809C83 8.90099 91.901 0 102.881 0H911.119C922.099 0 931 8.90099 931 19.8809C931 20.1071 931.174 20.2976 931.399 20.3172C946.211 21.6083 959.172 29.3575 967.452 40.7333C969.579 43.6544 972.847 45.6525 976.46 45.6525H1005C1010.52 45.6525 1015 50.1297 1015 55.6525V360.62C1015 366.143 1010.52 370.62 1005 370.62H981.251C977.009 370.62 973.315 373.347 971.352 377.108C963.008 393.09 946.278 404 927 404H568.415C566.239 404 564.143 403.265 562.319 402.079C549.908 394.003 530.196 388.783 508 388.783C485.804 388.783 466.092 394.003 453.681 402.079C451.857 403.265 449.761 404 447.585 404H87C66.1887 404 48.3471 391.285 40.8193 373.2C39.0425 368.931 35.1188 365.711 30.4949 365.711H10C4.47715 365.711 0 361.234 0 355.711V57.6161C0 52.0932 4.47715 47.6161 9.99999 47.6161H36.1891C39.9623 47.6161 43.3446 45.4421 45.4465 42.3086C53.6517 30.0762 67.1151 21.6671 82.601 20.3172C82.8264 20.2976 83 20.1071 83 19.8809ZM508.536 398.784C514.959 398.81 514.423 404 508 404V404C501.577 404 501.041 398.81 507.464 398.784C507.643 398.783 507.821 398.783 508 398.783C508.179 398.783 508.357 398.783 508.536 398.784Z"/>
</mask>
<path fill-rule="evenodd" clip-rule="evenodd" d="M83 19.8809C83 8.90099 91.901 0 102.881 0H911.119C922.099 0 931 8.90099 931 19.8809C931 20.1071 931.174 20.2976 931.399 20.3172C946.211 21.6083 959.172 29.3575 967.452 40.7333C969.579 43.6544 972.847 45.6525 976.46 45.6525H1005C1010.52 45.6525 1015 50.1297 1015 55.6525V360.62C1015 366.143 1010.52 370.62 1005 370.62H981.251C977.009 370.62 973.315 373.347 971.352 377.108C963.008 393.09 946.278 404 927 404H568.415C566.239 404 564.143 403.265 562.319 402.079C549.908 394.003 530.196 388.783 508 388.783C485.804 388.783 466.092 394.003 453.681 402.079C451.857 403.265 449.761 404 447.585 404H87C66.1887 404 48.3471 391.285 40.8193 373.2C39.0425 368.931 35.1188 365.711 30.4949 365.711H10C4.47715 365.711 0 361.234 0 355.711V57.6161C0 52.0932 4.47715 47.6161 9.99999 47.6161H36.1891C39.9623 47.6161 43.3446 45.4421 45.4465 42.3086C53.6517 30.0762 67.1151 21.6671 82.601 20.3172C82.8264 20.2976 83 20.1071 83 19.8809ZM508.536 398.784C514.959 398.81 514.423 404 508 404V404C501.577 404 501.041 398.81 507.464 398.784C507.643 398.783 507.821 398.783 508 398.783C508.179 398.783 508.357 398.783 508.536 398.784Z" fill="url(#paint0_linear_121_22)"/>
<path d="M931.399 20.3172L930.965 25.2983L930.965 25.2983L931.399 20.3172ZM82.601 20.3172L83.0352 25.2983L83.0352 25.2983L82.601 20.3172ZM508.536 398.784L508.515 403.784L508.536 398.784ZM40.8193 373.2L36.2033 375.122L40.8193 373.2ZM453.681 402.079L450.954 397.888L453.681 402.079ZM507.464 398.784L507.444 393.784L507.464 398.784ZM971.352 377.108L975.784 379.422L971.352 377.108ZM45.4465 42.3086L41.2942 39.5233L45.4465 42.3086ZM562.319 402.079L565.046 397.888L562.319 402.079ZM967.452 40.7333L971.495 37.7908L967.452 40.7333ZM102.881 -5C89.1396 -5 78 6.13957 78 19.8809H88C88 11.6624 94.6624 5 102.881 5V-5ZM911.119 -5H102.881V5H911.119V-5ZM936 19.8809C936 6.13957 924.86 -5 911.119 -5V5C919.338 5 926 11.6624 926 19.8809H936ZM931.833 15.3361C934.206 15.5429 936 17.5286 936 19.8809H926C926 22.6857 928.142 25.0522 930.965 25.2983L931.833 15.3361ZM971.495 37.7908C962.395 25.2889 948.139 16.7574 931.833 15.3361L930.965 25.2983C944.283 26.4592 955.95 33.426 963.41 43.6757L971.495 37.7908ZM1005 40.6525H976.46V50.6525H1005V40.6525ZM1020 360.62V55.6525H1010V360.62H1020ZM981.251 375.62H1005V365.62H981.251V375.62ZM927 409C948.213 409 966.612 396.99 975.784 379.422L966.919 374.794C959.403 389.19 944.343 399 927 399V409ZM568.415 409H927V399H568.415V409ZM565.046 397.888C551.589 389.132 530.841 383.783 508 383.783V393.783C529.551 393.783 548.226 398.874 559.592 406.27L565.046 397.888ZM508 383.783C485.159 383.783 464.411 389.132 450.954 397.888L456.408 406.27C467.774 398.874 486.449 393.783 508 393.783V383.783ZM87 409H447.585V399H87V409ZM36.2033 375.122C44.4797 395.006 64.0997 409 87 409V399C68.2777 399 52.2144 387.565 45.4354 371.279L36.2033 375.122ZM10 370.711H30.4949V360.711H10V370.711ZM-5 57.6161V355.711H5V57.6161H-5ZM36.1891 42.6161H9.99999V52.6161H36.1891V42.6161ZM82.1668 15.3361C65.119 16.8221 50.3118 26.0796 41.2942 39.5233L49.5989 45.0938C56.9916 34.0727 69.1112 26.5121 83.0352 25.2983L82.1668 15.3361ZM78 19.8809C78 17.5284 79.7946 15.5429 82.1668 15.3361L83.0352 25.2983C85.8582 25.0523 88 22.6859 88 19.8809H78ZM508 393.783C507.814 393.783 507.629 393.783 507.444 393.784L507.485 403.784C507.656 403.783 507.828 403.783 508 403.783V393.783ZM508.556 393.784C508.371 393.783 508.186 393.783 508 393.783V403.783C508.172 403.783 508.344 403.783 508.515 403.784L508.556 393.784ZM508 409C510.233 409 512.381 408.555 514.176 407.531C515.915 406.538 517.774 404.679 518.059 401.914C518.364 398.95 516.699 396.661 514.794 395.42C512.97 394.232 510.75 393.793 508.556 393.784L508.515 403.784C509.533 403.788 509.654 404.007 509.336 403.799C508.936 403.539 507.94 402.552 508.112 400.89C508.262 399.425 509.185 398.865 509.218 398.846C509.306 398.796 508.979 399 508 399V409ZM10 360.711C7.23857 360.711 5 358.472 5 355.711H-5C-5 363.995 1.71573 370.711 10 370.711V360.711ZM45.4354 371.279C43.0635 365.581 37.5706 360.711 30.4949 360.711V370.711C32.6671 370.711 35.0214 372.282 36.2033 375.122L45.4354 371.279ZM450.954 397.888C449.789 398.646 448.625 399 447.585 399V409C450.896 409 453.925 407.885 456.408 406.27L450.954 397.888ZM508 399C507.021 399 506.694 398.796 506.782 398.846C506.815 398.865 507.738 399.425 507.888 400.89C508.06 402.552 507.064 403.539 506.664 403.799C506.346 404.007 506.467 403.788 507.485 403.784L507.444 393.784C505.25 393.793 503.03 394.232 501.206 395.42C499.301 396.661 497.636 398.95 497.941 401.914C498.226 404.679 500.085 406.538 501.824 407.531C503.619 408.555 505.767 409 508 409V399ZM981.251 365.62C974.766 365.62 969.553 369.749 966.919 374.794L975.784 379.422C977.077 376.946 979.252 375.62 981.251 375.62V365.62ZM1010 360.62C1010 363.381 1007.76 365.62 1005 365.62V375.62C1013.28 375.62 1020 368.904 1020 360.62H1010ZM36.1891 52.6161C41.9509 52.6161 46.7634 49.321 49.5989 45.0938L41.2942 39.5233C39.9258 41.5632 37.9737 42.6161 36.1891 42.6161V52.6161ZM1005 50.6525C1007.76 50.6525 1010 52.8911 1010 55.6525H1020C1020 47.3683 1013.28 40.6525 1005 40.6525V50.6525ZM568.415 399C567.375 399 566.211 398.646 565.046 397.888L559.592 406.27C562.075 407.885 565.104 409 568.415 409V399ZM5 57.6161C5 54.8546 7.23857 52.6161 9.99999 52.6161V42.6161C1.71572 42.6161 -5 49.3318 -5 57.6161H5ZM963.41 43.6757C966.283 47.6231 970.945 50.6525 976.46 50.6525V40.6525C974.749 40.6525 972.874 39.6858 971.495 37.7908L963.41 43.6757Z" fill="white" mask="url(#path-1-inside-1_121_22)"/>
<defs>
<linearGradient id="paint0_linear_121_22" x1="507.5" y1="0" x2="507.5" y2="404" gradientUnits="userSpaceOnUse">
<stop stop-color="#4F2C5C"/>
<stop offset="0.73" stop-color="#1D132D"/>
<stop offset="1" stop-color="#1A0A0A"/>
</linearGradient>
</defs>
</svg>
