<svg width="1392" height="775" viewBox="0 0 1392 775" fill="none" xmlns="http://www.w3.org/2000/svg">
<path fill-rule="evenodd" clip-rule="evenodd" d="M744.036 0C750.933 0 757.532 3.47762 760.266 9.8094C763.536 17.3843 765.548 25.5409 766.142 33.9524C767.441 52.3702 761.838 70.5789 750.502 84.9293C747.229 89.0726 743.55 92.805 739.542 96.0825C729.767 104.077 716.692 96.3757 714.873 83.8788L714.086 78.4691C713.113 71.7852 716.486 65.3771 720.673 60.077C725.882 53.483 728.421 45.1702 727.831 36.8028C727.24 28.4344 723.557 20.5583 717.458 14.7688C711.352 8.97354 703.275 5.70252 694.837 5.67107C686.399 5.63962 678.298 8.85043 672.149 14.6009C666.007 20.3457 662.267 28.1951 661.616 36.5591C660.965 44.9221 663.445 53.2528 668.605 59.8844C672.753 65.2162 676.081 71.6499 675.06 78.3279L674.235 83.7199C672.326 96.2053 659.193 103.812 649.475 95.7434C645.492 92.4365 641.841 88.6775 638.598 84.5107C627.366 70.0752 621.894 51.8245 623.327 33.417C623.967 25.1919 625.963 17.2211 629.163 9.80934C631.896 3.47759 638.496 0 645.393 0H744.036ZM691.554 60.028L683.7 111.392C682.568 118.793 675.578 123.966 668.467 121.624C652.563 116.387 638.426 106.47 627.935 92.9874C614.621 75.8777 608.164 54.2895 609.856 32.5479C609.876 32.2913 609.516 32.2078 609.426 32.449C605.241 43.6926 602.921 56.0313 602.921 69.0884C602.921 124.989 645.444 167.723 694.8 167.723C744.156 167.723 786.679 124.989 786.679 69.0884C786.679 56.2466 784.435 44.0997 780.38 33.0061C780.224 32.5802 779.588 32.7283 779.62 33.1806C781.155 54.9342 774.541 76.4737 761.105 93.4837C750.517 106.888 736.308 116.699 720.368 121.817C713.239 124.106 706.287 118.883 705.209 111.473L698.887 68.0366C698.172 63.1216 701.789 58.6916 705.862 55.8494C707.435 54.7516 708.856 53.4184 710.07 51.8808C713.178 47.9465 714.708 42.9645 714.353 37.9329C713.998 32.9014 711.784 28.1919 708.156 24.748C704.528 21.3041 699.752 19.3802 694.787 19.3617C689.821 19.3432 685.032 21.2315 681.379 24.6482C677.726 28.065 675.478 32.7578 675.087 37.7866C674.696 42.8153 676.189 47.8086 679.268 51.766C680.472 53.3125 681.882 54.6561 683.448 55.7655C685.642 57.3208 688.139 58.4158 690.794 58.9636C691.288 59.0656 691.63 59.5294 691.554 60.028ZM808.724 32.9929C811.963 44.4254 813.702 56.5422 813.702 69.0884C813.702 138.488 760.468 194.747 694.8 194.747C629.132 194.747 575.898 138.488 575.898 69.0884C575.898 56.5422 577.638 44.4255 580.876 32.9929C585.152 17.8995 575.059 0.179132 559.371 0.179132H20.3025C9.25679 0.179132 0.30249 9.13344 0.30249 20.1791V731.426C0.30249 742.471 9.2568 751.426 20.3025 751.426H631.61C650.934 765.062 671.114 773.573 689.068 775C704.863 773.13 723.967 764.694 742.92 751.426H1372C1383.05 751.426 1392 742.471 1392 731.426V20.1791C1392 9.13343 1383.05 0.179132 1372 0.179132H830.229C814.542 0.179132 804.448 17.8995 808.724 32.9929Z" fill="url(#paint0_linear_88_2)"/>
<path d="M82.7762 126.56V67.5598H64.2762V53.5598H116.276V67.5598H97.7762V126.56H82.7762ZM126.837 126.56V53.5598H141.837V71.5598L141.337 82.0598H145.737L141.337 85.5598C141.337 80.8931 142.67 77.2264 145.337 74.5597C148.004 71.8931 151.604 70.5598 156.137 70.5598C161.47 70.5598 165.737 72.4264 168.937 76.1598C172.204 79.8931 173.837 84.8598 173.837 91.0598V126.56H158.837V92.5598C158.837 89.6931 158.07 87.4931 156.537 85.9598C155.07 84.3598 152.97 83.5598 150.237 83.5598C147.57 83.5598 145.504 84.3598 144.037 85.9598C142.57 87.4931 141.837 89.6931 141.837 92.5598V126.56H126.837ZM210.298 127.56C205.431 127.56 201.165 126.66 197.498 124.86C193.898 122.993 191.098 120.426 189.098 117.16C187.165 113.826 186.198 109.96 186.198 105.56V92.5598C186.198 88.1598 187.165 84.3264 189.098 81.0598C191.098 77.7264 193.898 75.1598 197.498 73.3598C201.165 71.4931 205.431 70.5598 210.298 70.5598C215.165 70.5598 219.365 71.4931 222.898 73.3598C226.498 75.1598 229.265 77.7264 231.198 81.0598C233.198 84.3264 234.198 88.1598 234.198 92.5598V102.56H200.498V105.56C200.498 109.026 201.331 111.66 202.998 113.46C204.665 115.193 207.165 116.06 210.498 116.06C212.831 116.06 214.698 115.66 216.098 114.86C217.565 114.06 218.531 112.96 218.998 111.56H233.698C232.498 116.36 229.765 120.226 225.498 123.16C221.298 126.093 216.231 127.56 210.298 127.56ZM219.898 94.8598V92.3598C219.898 88.9598 219.098 86.3598 217.498 84.5598C215.965 82.7598 213.565 81.8598 210.298 81.8598C207.031 81.8598 204.565 82.7931 202.898 84.6598C201.298 86.5264 200.498 89.1598 200.498 92.5598V94.0598L220.898 93.8598L219.898 94.8598ZM306.72 126.56V53.5598H330.22C337.62 53.5598 343.52 55.2598 347.92 58.6598C352.32 61.9931 354.52 66.5264 354.52 72.2597C354.52 75.4597 353.753 78.2598 352.22 80.6598C350.753 83.0598 348.753 84.9264 346.22 86.2598C343.753 87.5931 341.053 88.2598 338.12 88.2598V88.5598C341.387 88.4931 344.353 89.0931 347.02 90.3598C349.753 91.6264 351.953 93.5264 353.62 96.0598C355.287 98.5931 356.12 101.726 356.12 105.46C356.12 109.726 355.087 113.46 353.02 116.66C351.02 119.793 348.153 122.226 344.42 123.96C340.687 125.693 336.253 126.56 331.12 126.56H306.72ZM321.22 114.46H330.52C333.787 114.46 336.353 113.593 338.22 111.86C340.087 110.126 341.02 107.726 341.02 104.66C341.02 101.593 340.087 99.1931 338.22 97.4598C336.353 95.6598 333.787 94.7598 330.52 94.7598H321.22V114.46ZM321.22 82.9598H330.02C332.953 82.9598 335.253 82.1931 336.92 80.6598C338.587 79.0598 339.42 76.9264 339.42 74.2598C339.42 71.5264 338.587 69.4264 336.92 67.9598C335.253 66.4264 332.953 65.6598 330.02 65.6598H321.22V82.9598ZM367.081 126.56V112.96H386.081V85.0598H369.581V71.5598H400.081V112.96H416.081V126.56H367.081ZM392.081 62.8598C389.348 62.8598 387.148 62.1598 385.481 60.7597C383.881 59.3598 383.081 57.4598 383.081 55.0598C383.081 52.6597 383.881 50.7597 385.481 49.3598C387.148 47.9598 389.348 47.2597 392.081 47.2597C394.814 47.2597 396.981 47.9598 398.581 49.3598C400.248 50.7597 401.081 52.6597 401.081 55.0598C401.081 57.4598 400.248 59.3598 398.581 60.7597C396.981 62.1598 394.814 62.8598 392.081 62.8598ZM434.542 144.56V132.56H450.042C452.842 132.56 454.975 131.86 456.442 130.46C457.975 129.06 458.742 127.126 458.742 124.66V122.56L458.942 112.06H455.442L458.942 108.56C458.942 113.293 457.642 116.993 455.042 119.66C452.442 122.26 448.875 123.56 444.342 123.56C438.808 123.56 434.375 121.626 431.042 117.76C427.708 113.893 426.042 108.66 426.042 102.06V92.0598C426.042 85.5264 427.708 80.3264 431.042 76.4597C434.375 72.5264 438.808 70.5598 444.342 70.5598C448.875 70.5598 452.442 71.8931 455.042 74.5597C457.642 77.1597 458.942 80.8264 458.942 85.5598L455.442 82.0598H458.942L458.442 71.5598H473.442V125.16C473.442 131.16 471.375 135.893 467.242 139.36C463.175 142.826 457.608 144.56 450.542 144.56H434.542ZM449.742 110.56C452.475 110.56 454.608 109.793 456.142 108.26C457.675 106.66 458.442 104.426 458.442 101.56V92.5598C458.442 89.6931 457.675 87.4931 456.142 85.9598C454.608 84.3598 452.475 83.5598 449.742 83.5598C446.942 83.5598 444.775 84.3598 443.242 85.9598C441.775 87.4931 441.042 89.6931 441.042 92.5598V101.56C441.042 104.426 441.775 106.66 443.242 108.26C444.775 109.793 446.942 110.56 449.742 110.56ZM90.6762 259.56C85.8095 259.56 81.5429 258.66 77.8762 256.86C74.2095 254.993 71.3429 252.426 69.2762 249.16C67.2762 245.826 66.2762 241.96 66.2762 237.56V206.56C66.2762 202.093 67.2762 198.226 69.2762 194.96C71.3429 191.693 74.2095 189.16 77.8762 187.36C81.5429 185.493 85.8095 184.56 90.6762 184.56C95.6095 184.56 99.8762 185.493 103.476 187.36C107.143 189.16 109.976 191.693 111.976 194.96C114.043 198.226 115.076 202.093 115.076 206.56H100.076C100.076 203.626 99.2429 201.393 97.5762 199.86C95.9762 198.326 93.6762 197.56 90.6762 197.56C87.6762 197.56 85.3429 198.326 83.6762 199.86C82.0762 201.393 81.2762 203.626 81.2762 206.56V237.56C81.2762 240.426 82.0762 242.66 83.6762 244.26C85.3429 245.793 87.6762 246.56 90.6762 246.56C93.6762 246.56 95.9762 245.793 97.5762 244.26C99.2429 242.66 100.076 240.426 100.076 237.56V231.26H89.2762V218.56H115.076V237.56C115.076 241.96 114.043 245.826 111.976 249.16C109.976 252.426 107.143 254.993 103.476 256.86C99.8762 258.66 95.6095 259.56 90.6762 259.56ZM128.437 258.56V203.56H142.437V214.06H146.237L141.937 220.46C141.937 214.526 143.304 210.06 146.037 207.06C148.77 204.06 152.77 202.56 158.037 202.56C164.104 202.56 168.804 204.393 172.137 208.06C175.537 211.726 177.237 216.893 177.237 223.56V228.06H161.237V224.56C161.237 221.56 160.404 219.226 158.737 217.56C157.137 215.893 154.97 215.06 152.237 215.06C149.37 215.06 147.17 215.893 145.637 217.56C144.17 219.226 143.437 221.56 143.437 224.56V258.56H128.437ZM187.198 258.56V244.96H206.198V217.06H189.698V203.56H220.198V244.96H236.198V258.56H187.198ZM212.198 194.86C209.465 194.86 207.265 194.16 205.598 192.76C203.998 191.36 203.198 189.46 203.198 187.06C203.198 184.66 203.998 182.76 205.598 181.36C207.265 179.96 209.465 179.26 212.198 179.26C214.931 179.26 217.098 179.96 218.698 181.36C220.365 182.76 221.198 184.66 221.198 187.06C221.198 189.46 220.365 191.36 218.698 192.76C217.098 194.16 214.931 194.86 212.198 194.86ZM264.459 259.56C258.926 259.56 254.492 257.626 251.159 253.76C247.826 249.893 246.159 244.66 246.159 238.06V224.06C246.159 217.526 247.826 212.326 251.159 208.46C254.492 204.526 258.926 202.56 264.459 202.56C268.992 202.56 272.559 203.893 275.159 206.56C277.759 209.16 279.059 212.826 279.059 217.56L275.559 214.06H279.059L278.559 200.56V185.56H293.559V258.56H279.059V248.06H275.559L279.059 244.56C279.059 249.293 277.759 252.993 275.159 255.66C272.559 258.26 268.992 259.56 264.459 259.56ZM269.859 246.56C272.592 246.56 274.726 245.793 276.259 244.26C277.792 242.66 278.559 240.426 278.559 237.56V224.56C278.559 221.693 277.792 219.493 276.259 217.96C274.726 216.36 272.592 215.56 269.859 215.56C267.059 215.56 264.892 216.36 263.359 217.96C261.892 219.493 261.159 221.693 261.159 224.56V237.56C261.159 240.426 261.892 242.66 263.359 244.26C264.892 245.793 267.059 246.56 269.859 246.56Z" fill="white"/>
<defs>
<linearGradient id="paint0_linear_88_2" x1="696.151" y1="0" x2="696.151" y2="793.767" gradientUnits="userSpaceOnUse">
<stop offset="0.07"/>
<stop offset="0.33" stop-color="#270043"/>
<stop offset="0.495" stop-color="#3C0061"/>
<stop offset="1" stop-color="#614D97"/>
</linearGradient>
</defs>
</svg>
