<svg width="713" height="814" viewBox="0 0 713 814" fill="none" xmlns="http://www.w3.org/2000/svg">
<mask id="path-1-inside-1_99_3" fill="white">
<path fill-rule="evenodd" clip-rule="evenodd" d="M31.5801 0C37.0347 0 41.483 4.37103 41.5786 9.82471L42.1942 44.9384C42.291 50.4604 37.893 55.0153 32.371 55.1121L10.1753 55.5012C4.58471 55.5992 0 51.0942 0 45.5027V10C0 4.47715 4.47715 0 10 0H31.5801ZM51.5645 8.93263C51.4785 4.02482 55.4333 0 60.3419 0C65.1303 0 69.0354 3.83722 69.1193 8.62486L70.1942 69.9384C70.291 75.4604 65.893 80.0153 60.371 80.1121L7.8792 81.0323C3.55016 81.1082 0 77.6198 0 73.29C0 69.0664 3.3847 65.6218 7.60774 65.5478L42.5447 64.9353C48.0667 64.8385 52.4647 60.2835 52.3679 54.7615L51.5645 8.93263ZM79.148 10.1753L80.3679 79.7615C80.4647 85.2835 76.0667 89.8385 70.5447 89.9353L9.82471 90.9998C4.37104 91.0954 0 95.5437 0 100.998V804C0 809.523 4.47715 814 10 814H654C654 781.415 680.415 755 713 755V9.99999C713 4.47714 708.523 0 703 0H89.1464C83.555 0 79.05 4.58471 79.148 10.1753ZM713 775C691.461 775 674 792.461 674 814H703C708.523 814 713 809.523 713 804V775Z"/>
</mask>
<path fill-rule="evenodd" clip-rule="evenodd" d="M31.5801 0C37.0347 0 41.483 4.37103 41.5786 9.82471L42.1942 44.9384C42.291 50.4604 37.893 55.0153 32.371 55.1121L10.1753 55.5012C4.58471 55.5992 0 51.0942 0 45.5027V10C0 4.47715 4.47715 0 10 0H31.5801ZM51.5645 8.93263C51.4785 4.02482 55.4333 0 60.3419 0C65.1303 0 69.0354 3.83722 69.1193 8.62486L70.1942 69.9384C70.291 75.4604 65.893 80.0153 60.371 80.1121L7.8792 81.0323C3.55016 81.1082 0 77.6198 0 73.29C0 69.0664 3.3847 65.6218 7.60774 65.5478L42.5447 64.9353C48.0667 64.8385 52.4647 60.2835 52.3679 54.7615L51.5645 8.93263ZM79.148 10.1753L80.3679 79.7615C80.4647 85.2835 76.0667 89.8385 70.5447 89.9353L9.82471 90.9998C4.37104 91.0954 0 95.5437 0 100.998V804C0 809.523 4.47715 814 10 814H654C654 781.415 680.415 755 713 755V9.99999C713 4.47714 708.523 0 703 0H89.1464C83.555 0 79.05 4.58471 79.148 10.1753ZM713 775C691.461 775 674 792.461 674 814H703C708.523 814 713 809.523 713 804V775Z" fill="url(#paint0_linear_99_3)"/>
<path d="M41.5786 9.82471L46.5778 9.73707L46.5778 9.73707L41.5786 9.82471ZM42.1942 44.9384L37.1949 45.026L37.1949 45.026L42.1942 44.9384ZM32.371 55.1121L32.4586 60.1113L32.4586 60.1113L32.371 55.1121ZM10.1753 55.5012L10.0876 50.502L10.0876 50.502L10.1753 55.5012ZM51.5645 8.93263L56.5637 8.84499L56.5637 8.84499L51.5645 8.93263ZM69.1193 8.62486L64.1201 8.7125L64.1201 8.7125L69.1193 8.62486ZM70.1942 69.9384L75.1934 69.8507L75.1934 69.8507L70.1942 69.9384ZM60.371 80.1121L60.2834 75.1129L60.2834 75.1129L60.371 80.1121ZM7.8792 81.0323L7.96684 86.0316L7.96684 86.0316L7.8792 81.0323ZM7.60774 65.5478L7.5201 60.5485L7.5201 60.5485L7.60774 65.5478ZM42.5447 64.9353L42.6324 69.9345L42.6324 69.9345L42.5447 64.9353ZM52.3679 54.7615L47.3687 54.8492L47.3687 54.8492L52.3679 54.7615ZM80.3679 79.7615L85.3671 79.6739L85.3671 79.6739L80.3679 79.7615ZM79.148 10.1753L84.1472 10.0876L84.1472 10.0876L79.148 10.1753ZM70.5447 89.9353L70.6324 94.9345L70.6324 94.9345L70.5447 89.9353ZM9.82471 90.9998L9.91235 95.999L9.91236 95.999L9.82471 90.9998ZM654 814V819H659V814H654ZM713 755V760H718V755H713ZM713 775H718V770H713V775ZM674 814H669V819H674V814ZM46.5778 9.73707C46.4344 1.55655 39.7619 -5 31.5801 -5V5C34.3074 5 36.5316 7.18552 36.5794 9.91235L46.5778 9.73707ZM47.1934 44.8507L46.5778 9.73707L36.5794 9.91235L37.1949 45.026L47.1934 44.8507ZM32.4586 60.1113C40.7416 59.9661 47.3386 53.1337 47.1934 44.8507L37.1949 45.026C37.2433 47.787 35.0443 50.0645 32.2833 50.1129L32.4586 60.1113ZM10.2629 60.5004L32.4586 60.1113L32.2834 50.1129L10.0876 50.502L10.2629 60.5004ZM-5 45.5027C-5 53.8899 1.87707 60.6475 10.2629 60.5004L10.0876 50.502C7.29236 50.551 5 48.2985 5 45.5027H-5ZM-5 10V45.5027H5V10H-5ZM10 -5C1.71573 -5 -5 1.71573 -5 10H5C5 7.23858 7.23858 5 10 5V-5ZM31.5801 -5H10V5H31.5801V-5ZM60.3419 -5C52.6376 -5 46.4302 1.31718 46.5653 9.02028L56.5637 8.84499C56.5267 6.73245 58.229 5 60.3419 5V-5ZM74.1185 8.53722C73.9868 1.02273 67.8575 -5 60.3419 -5V5C62.403 5 64.0839 6.65171 64.1201 8.7125L74.1185 8.53722ZM75.1934 69.8507L74.1185 8.53722L64.1201 8.7125L65.1949 70.026L75.1934 69.8507ZM60.4586 85.1113C68.7416 84.9661 75.3386 78.1337 75.1934 69.8507L65.1949 70.026C65.2433 72.787 63.0443 75.0645 60.2834 75.1129L60.4586 85.1113ZM7.96684 86.0316L60.4586 85.1113L60.2834 75.1129L7.79156 76.0331L7.96684 86.0316ZM-5 73.29C-5 80.4155 0.842517 86.1564 7.96684 86.0316L7.79156 76.0331C6.2578 76.06 5 74.824 5 73.29H-5ZM7.5201 60.5485C0.570221 60.6704 -5 66.3391 -5 73.29H5C5 71.7936 6.19918 70.5732 7.69539 70.547L7.5201 60.5485ZM42.4571 59.9361L7.5201 60.5485L7.69538 70.547L42.6324 69.9345L42.4571 59.9361ZM47.3687 54.8492C47.4171 57.6102 45.2181 59.8877 42.4571 59.9361L42.6324 69.9345C50.9154 69.7893 57.5124 62.9569 57.3671 54.6739L47.3687 54.8492ZM46.5653 9.02027L47.3687 54.8492L57.3671 54.6739L56.5637 8.84499L46.5653 9.02027ZM85.3671 79.6739L84.1472 10.0876L74.1488 10.2629L75.3687 79.8492L85.3671 79.6739ZM70.6324 94.9345C78.9154 94.7893 85.5123 87.9569 85.3671 79.6739L75.3687 79.8492C75.4171 82.6102 73.2181 84.8877 70.4571 84.9361L70.6324 94.9345ZM9.91236 95.999L70.6324 94.9345L70.4571 84.9361L9.73707 86.0005L9.91236 95.999ZM5 100.998C5 98.271 7.18552 96.0468 9.91235 95.999L9.73708 86.0005C1.55655 86.1439 -5 92.8164 -5 100.998H5ZM5 804V100.998H-5V804H5ZM10 809C7.23858 809 5 806.761 5 804H-5C-5 812.284 1.71572 819 10 819V809ZM654 809H10V819H654V809ZM713 750C677.654 750 649 778.654 649 814H659C659 784.177 683.177 760 713 760V750ZM708 9.99999V755H718V9.99999H708ZM703 5C705.761 5 708 7.23858 708 9.99999H718C718 1.7157 711.284 -5 703 -5V5ZM89.1464 5H703V-5H89.1464V5ZM84.1472 10.0876C84.0982 7.29234 86.3507 5 89.1464 5V-5C80.7593 -5 74.0018 1.87709 74.1488 10.2629L84.1472 10.0876ZM713 770C688.699 770 669 789.699 669 814H679C679 795.222 694.222 780 713 780V770ZM703 809H674V819H703V809ZM708 804C708 806.761 705.761 809 703 809V819C711.284 819 718 812.284 718 804H708ZM708 775V804H718V775H708Z" fill="white" mask="url(#path-1-inside-1_99_3)"/>
<defs>
<linearGradient id="paint0_linear_99_3" x1="356.5" y1="0" x2="356.5" y2="814" gradientUnits="userSpaceOnUse">
<stop stop-color="#512700"/>
<stop offset="0.25" stop-color="#9F4D00"/>
<stop offset="0.45" stop-color="#8E4807"/>
<stop offset="0.635" stop-color="#C46004"/>
<stop offset="1" stop-color="#6B3400"/>
</linearGradient>
</defs>
</svg>
