<svg width="1092" height="324" viewBox="0 0 1092 324" fill="none" xmlns="http://www.w3.org/2000/svg">
<mask id="path-1-inside-1_39_68" fill="white">
<path fill-rule="evenodd" clip-rule="evenodd" d="M13.2247 97.786C4.7151 117.475 -0.000488281 139.187 -0.000488281 162C-0.000488281 183.683 4.25934 204.371 11.9877 223.272C14.045 223.531 15.6899 223.625 16.8678 223.573C22.0592 223.345 28.9218 218.904 34.7322 206.699C40.3287 194.944 43.6776 178.206 42.8489 159.369C42.0201 140.532 37.2143 124.153 30.6071 112.935C24.5471 102.645 18.2012 98.4637 13.2247 97.786ZM16.6323 233.583C43.0608 287.151 98.2269 324 162 324H930C1019.47 324 1092 251.47 1092 162C1092 72.5299 1019.47 6.10352e-05 930 6.10352e-05H162C98.9961 6.10352e-05 44.393 35.9658 17.6012 88.486C36.0833 93.6308 51.2554 122.929 52.8392 158.93C54.6112 199.207 38.703 232.622 17.3073 233.563C17.089 233.573 16.8639 233.579 16.6323 233.583Z"/>
</mask>
<path fill-rule="evenodd" clip-rule="evenodd" d="M13.2247 97.786C4.7151 117.475 -0.000488281 139.187 -0.000488281 162C-0.000488281 183.683 4.25934 204.371 11.9877 223.272C14.045 223.531 15.6899 223.625 16.8678 223.573C22.0592 223.345 28.9218 218.904 34.7322 206.699C40.3287 194.944 43.6776 178.206 42.8489 159.369C42.0201 140.532 37.2143 124.153 30.6071 112.935C24.5471 102.645 18.2012 98.4637 13.2247 97.786ZM16.6323 233.583C43.0608 287.151 98.2269 324 162 324H930C1019.47 324 1092 251.47 1092 162C1092 72.5299 1019.47 6.10352e-05 930 6.10352e-05H162C98.9961 6.10352e-05 44.393 35.9658 17.6012 88.486C36.0833 93.6308 51.2554 122.929 52.8392 158.93C54.6112 199.207 38.703 232.622 17.3073 233.563C17.089 233.573 16.8639 233.579 16.6323 233.583Z" fill="#380053" fill-opacity="0.19"/>
<path d="M13.2247 97.786L13.3597 96.7951L12.6078 96.6927L12.3068 97.3892L13.2247 97.786ZM11.9877 223.272L11.0621 223.651L11.2833 224.192L11.8631 224.265L11.9877 223.272ZM16.8678 223.573L16.9118 224.572H16.9118L16.8678 223.573ZM34.7322 206.699L33.8293 206.269L34.7322 206.699ZM42.8489 159.369L43.8479 159.325L42.8489 159.369ZM30.6071 112.935L29.7454 113.442L30.6071 112.935ZM16.6323 233.583L16.6176 232.583L15.0354 232.606L15.7355 234.025L16.6323 233.583ZM17.6012 88.486L16.7104 88.0316L16.1545 89.1213L17.3331 89.4494L17.6012 88.486ZM52.8392 158.93L51.8402 158.973L52.8392 158.93ZM17.3073 233.563L17.2634 232.564H17.2633L17.3073 233.563ZM0.999512 162C0.999512 139.326 5.68616 117.749 14.1426 98.1827L12.3068 97.3892C3.74403 117.201 -1.00049 139.048 -1.00049 162H0.999512ZM12.9134 222.894C5.23323 204.11 0.999512 183.551 0.999512 162H-1.00049C-1.00049 183.815 3.28545 204.631 11.0621 223.651L12.9134 222.894ZM11.8631 224.265C13.9468 224.526 15.6541 224.627 16.9118 224.572L16.8239 222.574C15.7257 222.622 14.1433 222.535 12.1124 222.28L11.8631 224.265ZM16.9118 224.572C22.6478 224.32 29.7588 219.472 35.6351 207.129L33.8293 206.269C28.0849 218.335 21.4706 222.37 16.8239 222.574L16.9118 224.572ZM35.6351 207.129C41.3149 195.199 44.6824 178.292 43.8479 159.325L41.8498 159.413C42.6728 178.12 39.3425 194.689 33.8293 206.269L35.6351 207.129ZM43.8479 159.325C43.0135 140.358 38.1744 123.813 31.4687 112.427L29.7454 113.442C36.2543 124.494 41.0268 140.706 41.8498 159.413L43.8479 159.325ZM31.4687 112.427C25.3332 102.01 18.7672 97.5315 13.3597 96.7951L13.0898 98.7768C17.6352 99.3959 23.7611 103.281 29.7454 113.442L31.4687 112.427ZM162 323C98.622 323 43.7956 286.38 17.5291 233.14L15.7355 234.025C42.3259 287.921 97.8317 325 162 325V323ZM930 323H162V325H930V323ZM1091 162C1091 250.918 1018.92 323 930 323V325C1020.02 325 1093 252.022 1093 162H1091ZM930 1.00006C1018.92 1.00006 1091 73.0822 1091 162H1093C1093 71.9777 1020.02 -0.999939 930 -0.999939V1.00006ZM162 1.00006H930V-0.999939H162V1.00006ZM18.492 88.9404C45.1197 36.7419 99.3865 1.00006 162 1.00006V-0.999939C98.6058 -0.999939 43.6663 35.1896 16.7104 88.0316L18.492 88.9404ZM53.8382 158.886C53.0411 140.766 48.824 124.298 42.4496 111.686C36.0918 99.1063 27.5019 90.204 17.8694 87.5227L17.3331 89.4494C26.1827 91.9128 34.4198 100.232 40.6646 112.588C46.8926 124.911 51.0535 141.093 51.8402 158.973L53.8382 158.886ZM17.3513 234.562C28.5998 234.068 38.1721 225.064 44.6641 211.427C51.1774 197.746 54.73 179.155 53.8382 158.886L51.8402 158.973C52.7204 178.982 49.2049 197.237 42.8583 210.568C36.4902 223.944 27.4106 232.118 17.2634 232.564L17.3513 234.562ZM16.647 234.583C16.8877 234.579 17.1226 234.572 17.3513 234.562L17.2633 232.564C17.0554 232.573 16.8401 232.58 16.6176 232.583L16.647 234.583Z" fill="black" mask="url(#path-1-inside-1_39_68)"/>
<mask id="path-3-inside-2_39_68" fill="white">
<path d="M386 81.0001C386 36.265 422.264 6.10352e-05 467 6.10352e-05H1011C1055.73 6.10352e-05 1092 36.265 1092 81.0001V243C1092 287.735 1055.73 324 1011 324H467C422.264 324 386 287.735 386 243V81.0001Z"/>
</mask>
<path d="M386 81.0001C386 36.265 422.264 6.10352e-05 467 6.10352e-05H1011C1055.73 6.10352e-05 1092 36.265 1092 81.0001V243C1092 287.735 1055.73 324 1011 324H467C422.264 324 386 287.735 386 243V81.0001Z" fill="#168F31" fill-opacity="0.64"/>
<path d="M376 81.0001C376 30.7421 416.742 -9.99994 467 -9.99994H1011C1061.26 -9.99994 1102 30.7421 1102 81.0001H1082C1082 41.7878 1050.21 10.0001 1011 10.0001H467C427.787 10.0001 396 41.7878 396 81.0001H376ZM1102 273C1102 323.258 1061.26 364 1011 364H467C416.742 364 376 323.258 376 273L396 243C396 265.644 427.787 284 467 284H1011C1050.21 284 1082 265.644 1082 243L1102 273ZM467 364C416.742 364 376 323.258 376 273V81.0001C376 30.7421 416.742 -9.99994 467 -9.99994V10.0001C427.787 10.0001 396 41.7878 396 81.0001V243C396 265.644 427.787 284 467 284V364ZM1011 -9.99994C1061.26 -9.99994 1102 30.7421 1102 81.0001V273C1102 323.258 1061.26 364 1011 364V284C1050.21 284 1082 265.644 1082 243V81.0001C1082 41.7878 1050.21 10.0001 1011 10.0001V-9.99994Z" fill="black" mask="url(#path-3-inside-2_39_68)"/>
<line x1="744" y1="6.10352e-05" x2="744" y2="292" stroke="black" stroke-width="10"/>
</svg>
