<svg width="1758" height="988" viewBox="0 0 1758 988" fill="none" xmlns="http://www.w3.org/2000/svg">
<mask id="path-1-inside-1_126_9" fill="white">
<path fill-rule="evenodd" clip-rule="evenodd" d="M0 15C0 6.71574 6.71573 0 15 0H1743C1751.28 0 1758 6.71573 1758 15V973C1758 981.284 1751.28 988 1743 988H15C6.7157 988 0 981.284 0 973V604.486C84.766 582.648 182 541.35 182 494C182 493.902 182 493.805 181.999 493.707C182 493.638 182 493.569 182 493.5C182 493.095 181.986 492.692 181.958 492.289C179.656 445.657 83.7435 405.089 0 383.514V15ZM152.2 460.97C149.089 458.238 145.599 455.472 141.723 452.681C121.664 438.235 93.7443 424.922 63.0821 413.576C42.4154 405.928 20.8266 399.289 0 393.845V444.566C10.9748 435.468 25.0609 430 40.4227 430C63.5751 430 117.975 442.421 152.2 460.97ZM0 520.213V466.787C8.66804 453.656 23.5422 445 40.4227 445C55.5194 445 89.0603 451.522 119.135 462.664C134.055 468.192 147.055 474.477 156.031 480.95C165.824 488.011 167 492.447 167 493.5C167 494.553 165.824 498.989 156.031 506.05C147.055 512.523 134.055 518.808 119.135 524.336C89.0603 535.478 55.5194 542 40.4227 542C23.5422 542 8.66804 533.344 0 520.213ZM0 542.434V594.155C20.8266 588.711 42.4154 582.072 63.0821 574.424C93.7443 563.078 121.664 549.765 141.723 535.319C146.821 531.648 151.251 528.021 155.03 524.455C121.05 543.873 64.2241 557 40.4227 557C25.0609 557 10.9748 551.532 0 542.434Z"/>
</mask>
<path fill-rule="evenodd" clip-rule="evenodd" d="M0 15C0 6.71574 6.71573 0 15 0H1743C1751.28 0 1758 6.71573 1758 15V973C1758 981.284 1751.28 988 1743 988H15C6.7157 988 0 981.284 0 973V604.486C84.766 582.648 182 541.35 182 494C182 493.902 182 493.805 181.999 493.707C182 493.638 182 493.569 182 493.5C182 493.095 181.986 492.692 181.958 492.289C179.656 445.657 83.7435 405.089 0 383.514V15ZM152.2 460.97C149.089 458.238 145.599 455.472 141.723 452.681C121.664 438.235 93.7443 424.922 63.0821 413.576C42.4154 405.928 20.8266 399.289 0 393.845V444.566C10.9748 435.468 25.0609 430 40.4227 430C63.5751 430 117.975 442.421 152.2 460.97ZM0 520.213V466.787C8.66804 453.656 23.5422 445 40.4227 445C55.5194 445 89.0603 451.522 119.135 462.664C134.055 468.192 147.055 474.477 156.031 480.95C165.824 488.011 167 492.447 167 493.5C167 494.553 165.824 498.989 156.031 506.05C147.055 512.523 134.055 518.808 119.135 524.336C89.0603 535.478 55.5194 542 40.4227 542C23.5422 542 8.66804 533.344 0 520.213ZM0 542.434V594.155C20.8266 588.711 42.4154 582.072 63.0821 574.424C93.7443 563.078 121.664 549.765 141.723 535.319C146.821 531.648 151.251 528.021 155.03 524.455C121.05 543.873 64.2241 557 40.4227 557C25.0609 557 10.9748 551.532 0 542.434Z" fill="#930000" fill-opacity="0.39"/>
<path d="M0 604.486L-2.49483 594.802L-10 596.736V604.486H0ZM181.999 493.707L171.999 493.588L171.998 493.69L171.999 493.792L181.999 493.707ZM181.958 492.289L171.97 492.782L171.975 492.884L171.982 492.985L181.958 492.289ZM0 383.514H-10V391.264L-2.49483 393.198L0 383.514ZM152.2 460.97L147.435 469.762L158.799 453.457L152.2 460.97ZM141.723 452.681L147.567 444.566L147.567 444.566L141.723 452.681ZM63.0821 413.576L59.6117 422.954L59.6117 422.954L63.0821 413.576ZM0 393.845L2.52917 384.17L-10 380.895V393.845H0ZM0 444.566H-10V465.846L6.38224 452.265L0 444.566ZM0 466.787L-8.34563 461.278L-10 463.784V466.787H0ZM0 520.213H-10V523.216L-8.34563 525.722L0 520.213ZM119.135 462.664L122.61 453.287L122.609 453.287L119.135 462.664ZM156.031 480.95L150.183 489.061L150.183 489.061L156.031 480.95ZM156.031 506.05L150.183 497.939L150.183 497.939L156.031 506.05ZM119.135 524.336L122.609 533.713L122.61 533.713L119.135 524.336ZM0 542.434L6.38224 534.735L-10 521.154L-10 542.434H0ZM0 594.155H-10V607.105L2.52919 603.83L0 594.155ZM63.0821 574.424L66.5526 583.803L66.5526 583.803L63.0821 574.424ZM141.723 535.319L135.879 527.205L135.879 527.205L141.723 535.319ZM155.03 524.455L161.893 531.728L150.068 515.773L155.03 524.455ZM15 -10C1.19287 -10 -10 1.1929 -10 15H10C10 12.2386 12.2386 10 15 10V-10ZM1743 -10H15V10H1743V-10ZM1768 15C1768 1.19289 1756.81 -10 1743 -10V10C1745.76 10 1748 12.2386 1748 15H1768ZM1768 973V15H1748V973H1768ZM1743 998C1756.81 998 1768 986.807 1768 973H1748C1748 975.761 1745.76 978 1743 978V998ZM15 998H1743V978H15V998ZM-10 973C-10 986.807 1.19283 998 15 998V978C12.2386 978 10 975.761 10 973H-10ZM-10 604.486V973H10V604.486H-10ZM172 494C172 502.253 167.763 511.356 158.27 521.242C148.819 531.083 134.996 540.792 118.011 550.024C84.0917 568.462 39.4499 583.996 -2.49483 594.802L2.49483 614.17C45.3161 603.138 91.6743 587.104 127.563 567.596C145.483 557.855 161.266 546.996 172.695 535.095C184.082 523.237 192 509.422 192 494H172ZM171.999 493.792C172 493.861 172 493.931 172 494H192C192 493.874 191.999 493.748 191.998 493.623L171.999 493.792ZM191.998 493.827C191.999 493.718 192 493.609 192 493.5H172C172 493.529 172 493.559 171.999 493.588L191.998 493.827ZM192 493.5C192 492.862 191.978 492.226 191.934 491.594L171.982 492.985C171.994 493.158 172 493.329 172 493.5H192ZM-2.49483 393.198C38.9388 403.872 83.0146 419.163 116.785 437.313C133.692 446.4 147.574 455.97 157.237 465.7C166.96 475.492 171.564 484.567 171.97 492.782L191.946 491.796C191.2 476.696 182.952 463.212 171.428 451.607C159.843 439.942 144.081 429.278 126.254 419.697C90.557 400.511 44.8047 384.731 2.49483 373.83L-2.49483 393.198ZM-10 15V383.514H10V15H-10ZM158.799 453.457C155.418 450.487 151.672 447.523 147.567 444.566L135.879 460.795C139.526 463.422 142.76 465.988 145.601 468.484L158.799 453.457ZM147.567 444.566C126.468 429.372 97.606 415.689 66.5526 404.197L59.6117 422.954C89.8827 434.156 116.86 447.099 135.879 460.795L147.567 444.566ZM66.5526 404.197C45.5392 396.422 23.6325 389.687 2.52917 384.17L-2.52917 403.52C18.0208 408.892 39.2916 415.435 59.6117 422.954L66.5526 404.197ZM-10 393.845V444.566H10V393.845H-10ZM40.4227 420C22.6442 420 6.3193 426.338 -6.38224 436.868L6.38224 452.265C15.6302 444.598 27.4776 440 40.4227 440V420ZM156.965 452.179C138.888 442.381 115.892 434.391 94.6857 428.854C73.5965 423.347 53.2521 420 40.4227 420V440C50.7456 440 69.1776 442.864 89.6328 448.205C109.971 453.515 131.287 461.01 147.435 469.762L156.965 452.179ZM-10 466.787V520.213H10V466.787H-10ZM40.4227 435C20.0388 435 2.09267 445.465 -8.34563 461.278L8.34563 472.296C15.2434 461.847 27.0456 455 40.4227 455V435ZM122.609 453.287C91.9075 441.912 57.1309 435 40.4227 435V455C53.9079 455 86.2131 461.131 115.661 472.041L122.609 453.287ZM161.88 472.839C151.863 465.616 137.92 458.96 122.61 453.287L115.661 472.041C130.19 477.424 142.246 483.339 150.183 489.061L161.88 472.839ZM177 493.5C177 490.106 175.502 486.71 173.323 483.662C171.002 480.416 167.385 476.808 161.88 472.839L150.183 489.061C154.471 492.153 156.338 494.293 157.053 495.294C157.404 495.784 157.429 495.932 157.348 495.724C157.307 495.619 157 494.832 157 493.5H177ZM161.88 514.161C167.385 510.192 171.002 506.584 173.323 503.338C175.502 500.29 177 496.894 177 493.5H157C157 492.168 157.307 491.381 157.348 491.276C157.429 491.068 157.404 491.216 157.053 491.706C156.338 492.707 154.471 494.847 150.183 497.939L161.88 514.161ZM122.61 533.713C137.92 528.04 151.863 521.384 161.88 514.161L150.183 497.939C142.246 503.661 130.19 509.576 115.661 514.959L122.61 533.713ZM40.4227 552C57.1309 552 91.9075 545.088 122.609 533.713L115.661 514.959C86.2131 525.869 53.9079 532 40.4227 532V552ZM-8.34563 525.722C2.09267 541.535 20.0388 552 40.4227 552V532C27.0456 532 15.2434 525.153 8.34563 514.704L-8.34563 525.722ZM-10 542.434V594.155H10V542.434H-10ZM2.52919 603.83C23.6325 598.313 45.5392 591.578 66.5526 583.803L59.6117 565.046C39.2917 572.565 18.0208 579.108 -2.52919 584.48L2.52919 603.83ZM66.5526 583.803C97.606 572.311 126.468 558.628 147.567 543.434L135.879 527.205C116.86 540.901 89.8827 553.844 59.6117 565.046L66.5526 583.803ZM147.567 543.434C152.964 539.547 157.744 535.643 161.893 531.728L148.166 517.182C144.757 520.399 140.679 523.748 135.879 527.205L147.567 543.434ZM40.4227 567C53.5996 567 74.7294 563.468 96.4836 557.672C118.34 551.85 141.957 543.443 159.991 533.138L150.068 515.773C134.123 524.885 112.337 532.751 91.335 538.346C70.2311 543.969 51.0471 547 40.4227 547V567ZM-6.38224 550.132C6.31931 560.662 22.6442 567 40.4227 567V547C27.4776 547 15.6302 542.402 6.38224 534.735L-6.38224 550.132Z" fill="url(#paint0_linear_126_9)" mask="url(#path-1-inside-1_126_9)"/>
<defs>
<linearGradient id="paint0_linear_126_9" x1="879" y1="0" x2="879" y2="988" gradientUnits="userSpaceOnUse">
<stop stop-color="#E13D3D"/>
<stop offset="0.22" stop-color="#967029"/>
<stop offset="0.46" stop-color="#AAAC2F"/>
<stop offset="0.666667" stop-color="#906027"/>
<stop offset="1" stop-color="#7B2121"/>
</linearGradient>
</defs>
</svg>
