<svg width="128" height="129" viewBox="0 0 128 129" fill="none" xmlns="http://www.w3.org/2000/svg">
<path d="M63.9992 10.0303L95.9805 66.8979H32.0164L63.9992 10.0303Z" fill="#B9B9B9"/>
<ellipse cx="64" cy="83.5303" rx="36.5" ry="34.5" fill="#B9B9B9"/>
<path d="M61.2982 54.621C62.7034 52.923 64.7469 51.88 66.9463 51.7381L74.1064 51.2762C77.1092 51.0824 79.9667 52.59 81.5019 55.178L88.8974 67.6447C92.1526 73.1319 87.9896 80.0349 81.6175 79.7163L69.169 79.0939C67.4367 79.0073 65.7795 78.36 64.447 77.2497L57.6249 71.5645C54.2388 68.7428 53.773 63.7139 56.5832 60.3182L61.2982 54.621Z" fill="#278208"/>
<path d="M34.3174 78.6284C34.4024 72.7666 40.555 68.9839 45.824 71.5542L51.699 74.42C53.7945 75.4422 55.3398 77.3278 55.9306 79.5833L59.2058 92.0889C59.995 95.1022 58.9634 98.2996 56.5619 100.283L52.6593 103.507C50.4033 105.371 47.3099 105.854 44.5931 104.768L39.1078 102.573C36.0312 101.343 34.0317 98.3428 34.0797 95.0296L34.3174 78.6284Z" fill="#278208"/>
<path d="M63.3923 94.5573C62.184 88.3144 68.3903 83.2251 74.2756 85.6328L81.2576 88.489C82.1327 88.847 82.9374 89.3573 83.6344 89.9962L85.8242 92.0035C90.0086 95.8392 88.9782 102.691 83.8508 105.127L75.4295 109.127C74.866 109.395 74.2702 109.588 73.657 109.703V109.703C69.7422 110.437 65.9694 107.872 65.2126 103.962L63.3923 94.5573Z" fill="#278208"/>
<path d="M53.1726 38.6298C53.4125 36.6389 54.4034 34.8146 55.943 33.5297L61.3786 28.9929C65.5186 25.5374 71.8217 27.0842 73.8919 32.0635L74.0959 32.5544C75.5675 36.0939 74.3215 40.1799 71.1253 42.296L65.3299 46.1329C59.7359 49.8366 52.37 45.2906 53.1726 38.6298V38.6298Z" fill="#278208"/>
</svg>
