<svg width="128" height="129" viewBox="0 0 128 129" fill="none" xmlns="http://www.w3.org/2000/svg">
<rect x="10.0768" y="38.1083" width="74.72" height="77.163" rx="4" fill="#B9B9B9"/>
<path d="M89.738 40.4033C89.738 38.9817 90.4926 37.6669 91.72 36.9497L118.735 21.164C121.401 19.6058 124.753 21.5291 124.753 24.6176V92.5149C124.753 93.9365 123.998 95.2513 122.771 95.9685L95.7561 111.754C93.0895 113.312 89.738 111.389 89.738 108.301V40.4033Z" fill="#B9B9B9"/>
<path d="M47.3961 13.126C47.9023 12.9041 48.4491 12.7895 49.0018 12.7895L110.454 12.7893C114.617 12.7893 116.011 18.3562 112.339 20.3175L89.081 32.7411C88.5011 33.0509 87.8538 33.2129 87.1964 33.2129H20.6577C16.3261 33.2129 15.0847 27.2883 19.052 25.5494L47.3961 13.126Z" fill="#B9B9B9"/>
</svg>
