<svg width="128" height="129" viewBox="0 0 128 129" fill="none" xmlns="http://www.w3.org/2000/svg">
<ellipse cx="63.5" cy="89.5303" rx="53.5" ry="27.5" fill="#F2600E"/>
<ellipse cx="64.5" cy="69.5303" rx="61.5" ry="22.5" fill="#B9B9B9"/>
<ellipse cx="64.5" cy="31.5303" rx="51.5" ry="28.5" fill="#F2600E"/>
<path d="M58 71.0303C58 85.4963 55.2772 98.398 51.0478 107.534C46.663 117.005 41.4094 121.03 37 121.03C32.5906 121.03 27.337 117.005 22.9522 107.534C18.7228 98.398 16 85.4963 16 71.0303C16 56.5643 18.7228 43.6625 22.9522 34.527C27.337 25.0559 32.5906 21.0303 37 21.0303C41.4094 21.0303 46.663 25.0559 51.0478 34.527C55.2772 43.6625 58 56.5643 58 71.0303Z" stroke="black" stroke-width="8"/>
</svg>
