<svg width="129" height="129" viewBox="0 0 129 129" fill="none" xmlns="http://www.w3.org/2000/svg">
<path d="M102.177 98.2549C103.096 104.28 97.2088 109.08 91.4923 106.965L73.7439 100.398L99.3222 79.5472L102.177 98.2549Z" fill="#C82400"/>
<path d="M99.1228 79.7096L74.076 100.127L27.9518 43.5447C25.1601 40.1201 25.6732 35.0809 29.0978 32.2892L41.743 21.9812C45.1676 19.1896 50.2069 19.7027 52.9986 23.1273L99.1228 79.7096Z" fill="#C82400"/>
<path d="M67.0149 23.0629C68.7501 23.1787 70.0236 24.741 69.7873 26.4639L67.5386 42.8582C67.1822 45.4565 63.8982 46.3788 62.2411 44.346L47.9788 26.8499C46.3218 24.8171 47.8871 21.7864 50.5039 21.961L67.0149 23.0629Z" fill="#D9D9D9"/>
<path d="M28.4783 60.138C26.743 60.0222 25.4695 58.46 25.7059 56.737L27.9545 40.3428C28.3109 37.7445 31.5949 36.8221 33.252 38.8549L47.5143 56.351C49.1714 58.3838 47.6061 61.4145 44.9893 61.2399L28.4783 60.138Z" fill="#D9D9D9"/>
<path d="M94.8159 57.1673C96.5512 57.2831 97.8247 58.8453 97.5883 60.5683L95.3396 76.9625C94.9833 79.5608 91.6992 80.4832 90.0422 78.4504L75.7798 60.9543C74.1228 58.9215 75.6881 55.8908 78.3049 56.0654L94.8159 57.1673Z" fill="#D9D9D9"/>
<path d="M56.2793 94.2423C54.5441 94.1265 53.2705 92.5642 53.5069 90.8413L55.7556 74.447C56.112 71.8487 59.396 70.9264 61.053 72.9592L75.3154 90.4553C76.9724 92.4881 75.4071 95.5188 72.7903 95.3441L56.2793 94.2423Z" fill="#D9D9D9"/>
</svg>
