<svg width="128" height="129" viewBox="0 0 128 129" fill="none" xmlns="http://www.w3.org/2000/svg">
<path d="M59.4924 31.4287C61.0107 28.6591 64.9892 28.6591 66.5075 31.4287L100.456 93.3575C101.918 96.0232 99.9887 99.2803 96.9487 99.2803H29.0511C26.0111 99.2803 24.0822 96.0232 25.5436 93.3575L59.4924 31.4287Z" fill="#B87333"/>
<path d="M53.9999 7.03027H71.9999V63.0303H53.9999V7.03027Z" fill="#B87333"/>
<path d="M50.9999 9.53027C50.9999 8.14956 52.1192 7.03027 53.4999 7.03027H72.4999C73.8806 7.03027 74.9999 8.14956 74.9999 9.53027C74.9999 10.911 73.8806 12.0303 72.4999 12.0303H53.4999C52.1192 12.0303 50.9999 10.911 50.9999 9.53027Z" fill="#B87333"/>
<path d="M85.447 46.4287C86.9652 43.6591 90.9438 43.6591 92.462 46.4287L126.411 108.357C127.872 111.023 125.943 114.28 122.903 114.28H55.0057C51.9657 114.28 50.0368 111.023 51.4981 108.357L85.447 46.4287Z" fill="#8B3103"/>
<path d="M79.9545 22.0303H97.9545V78.0303H79.9545V22.0303Z" fill="#8B3103"/>
<path d="M76.9545 24.5303C76.9545 23.1496 78.0738 22.0303 79.4545 22.0303H98.4545C99.8352 22.0303 100.955 23.1496 100.955 24.5303C100.955 25.911 99.8352 27.0303 98.4545 27.0303H79.4545C78.0738 27.0303 76.9545 25.911 76.9545 24.5303Z" fill="#8B3103"/>
<path d="M35.447 53.4287C36.9652 50.6591 40.9438 50.6591 42.462 53.4287L76.4109 115.357C77.8722 118.023 75.9433 121.28 72.9033 121.28H5.00567C1.96571 121.28 0.0368329 118.023 1.49814 115.357L35.447 53.4287Z" fill="#B9B9B9"/>
<path d="M29.9545 29.0303H47.9545V85.0303H29.9545V29.0303Z" fill="#B9B9B9"/>
<path d="M26.9545 31.5303C26.9545 30.1496 28.0738 29.0303 29.4545 29.0303H48.4545C49.8352 29.0303 50.9545 30.1496 50.9545 31.5303C50.9545 32.911 49.8352 34.0303 48.4545 34.0303H29.4545C28.0738 34.0303 26.9545 32.911 26.9545 31.5303Z" fill="#B9B9B9"/>
</svg>
