<svg width="128" height="129" viewBox="0 0 128 129" fill="none" xmlns="http://www.w3.org/2000/svg">
<path d="M61.491 36.4836L75.8044 23.7322L119.105 68.8739L104.791 81.6254L61.491 36.4836Z" fill="black"/>
<path d="M118.965 68.7146C120.937 70.7246 119.687 75.5519 115.615 78.9226C111.543 82.2932 106.514 83.3757 104.541 81.3657C102.568 79.3557 104.399 75.0145 108.471 71.6438C112.543 68.2732 116.992 66.7047 118.965 68.7146Z" fill="black"/>
<path d="M61.1849 36.1014C59.2121 34.0914 60.4626 29.2641 64.5347 25.8935C68.6067 22.5229 73.636 21.4406 75.6088 23.4505C77.5816 25.4605 75.751 29.8018 71.6789 33.1724C67.6069 36.5429 63.1577 38.1114 61.1849 36.1014Z" fill="black"/>
<path d="M20.5086 57.0937L8.70395 45.919L50.494 12.1138L62.2987 23.2885L20.5086 57.0937Z" fill="black"/>
<path d="M50.3462 12.2233C52.207 10.6831 56.6759 11.6594 59.7962 14.8384C62.9166 18.0175 63.9187 21.9439 62.058 23.4841C60.1972 25.0243 56.1783 23.5952 53.0579 20.4161C49.9376 17.237 48.4855 13.7636 50.3462 12.2233Z" fill="black"/>
<path d="M20.1547 57.3326C18.294 58.8728 13.8251 57.8965 10.7048 54.7174C7.58443 51.5383 6.58241 47.6119 8.44316 46.0716C10.3039 44.5314 14.3228 45.9607 17.4431 49.1398C20.5635 52.3189 22.0155 55.7924 20.1547 57.3326Z" fill="black"/>
<path d="M21.7858 72.6377L35.4369 60.4762L76.7339 103.529L63.0828 115.691L21.7858 72.6377Z" fill="black"/>
<path d="M76.6003 103.377C78.4818 105.294 77.2892 109.898 73.4056 113.113C69.522 116.327 64.7255 117.36 62.8439 115.443C60.9623 113.526 62.7082 109.386 66.5918 106.171C70.4754 102.956 74.7187 101.46 76.6003 103.377Z" fill="black"/>
<path d="M21.4939 72.273C19.6123 70.356 20.805 65.7521 24.6886 62.5374C28.5723 59.3228 33.3688 58.2905 35.2504 60.2075C37.1319 62.1245 35.386 66.2648 31.5023 69.4795C27.6187 72.6941 23.3754 74.19 21.4939 72.273Z" fill="black"/>
<path d="M41.6468 53.9283L55.6878 41.4196L98.1641 85.7022L84.1231 98.2109L41.6468 53.9283Z" fill="black"/>
<path d="M98.0265 85.5458C99.9618 87.5175 98.7351 92.253 94.7406 95.5595C90.7461 98.8659 85.8126 99.9278 83.8773 97.9561C81.942 95.9844 83.7377 91.7258 87.7322 88.4193C91.7267 85.1128 96.0912 83.5741 98.0265 85.5458Z" fill="black"/>
<path d="M41.3465 53.5533C39.4112 51.5816 40.638 46.8462 44.6325 43.5397C48.627 40.2333 53.5606 39.1715 55.4959 41.1432C57.4311 43.115 55.6353 47.3736 51.6408 50.68C47.6462 53.9864 43.2818 55.5251 41.3465 53.5533Z" fill="black"/>
</svg>
