<svg width="128" height="129" viewBox="0 0 128 129" fill="none" xmlns="http://www.w3.org/2000/svg">
<rect x="2" y="34.0303" width="8" height="65" fill="#666666"/>
<rect x="10" y="62.0303" width="4" height="8" fill="#666666"/>
<rect x="91" y="10.0303" width="8" height="65" transform="rotate(90 91 10.0303)" fill="#666666"/>
<rect x="63.0103" y="18.0295" width="4" height="8" transform="rotate(90 63.0103 18.0295)" fill="#666666"/>
<path d="M14 34.0303C14 31.8211 15.7909 30.0303 18 30.0303H22V103.03H18C15.7909 103.03 14 101.239 14 99.0303V34.0303Z" fill="#666666"/>
<rect x="95" y="48.0303" width="16" height="8" fill="#666666"/>
<path d="M111 32.0303H123C125.209 32.0303 127 33.8211 127 36.0303V40.0303H111V32.0303Z" fill="#666666"/>
<path d="M111 109.03H127V113.03C127 115.239 125.209 117.03 123 117.03H111V109.03Z" fill="#666666"/>
<rect x="30" y="22.0303" width="57" height="8" fill="#666666"/>
<path d="M22 26.0303C22 23.8211 23.7909 22.0303 26 22.0303H30V34.0303C30 36.2394 28.2091 38.0303 26 38.0303H22V26.0303Z" fill="#666666"/>
<path d="M87 22.0303H91C93.2091 22.0303 95 23.8211 95 26.0303V36.0303H87V22.0303Z" fill="#666666"/>
<rect x="16.3431" y="100.687" width="8" height="22.6274" transform="rotate(-45 16.3431 100.687)" fill="#666666"/>
<rect x="87" y="34.7665" width="8" height="22.6274" transform="rotate(-20 87 34.7665)" fill="#666666"/>
<rect x="110.739" y="32.0303" width="8" height="22.6274" transform="rotate(20 110.739 32.0303)" fill="#666666"/>
<path d="M94 93.0303H110V101.03H94V93.0303Z" fill="#666666"/>
<rect x="102" y="95.7665" width="8" height="22.6274" transform="rotate(-20 102 95.7665)" fill="#666666"/>
<rect x="93.739" y="93.0303" width="8" height="22.6274" transform="rotate(20 93.739 93.0303)" fill="#666666"/>
<rect x="32" y="109.03" width="61" height="8" fill="#666666"/>
<rect x="119" y="40.0303" width="8" height="69" fill="#666666"/>
</svg>
