<svg width="128" height="129" viewBox="0 0 128 129" fill="none" xmlns="http://www.w3.org/2000/svg">
<path d="M7.08124 38.0221C7.32662 32.4603 11.3651 27.7977 16.8349 26.7609L69.7653 16.7284C77.157 15.3273 84 20.9952 84 28.5184V70.5817C84 76.9898 78.9651 82.2672 72.5641 82.5684L49.1798 83.6689C44.4991 83.8891 40.3747 86.8138 38.6185 91.1581L36.481 96.4456C34.0036 102.574 27.0365 105.545 20.899 103.09L12.407 99.6931C7.67134 97.7988 4.65054 93.118 4.87534 88.0225L7.08124 38.0221Z" fill="black"/>
<path d="M86.1269 71.9354C86.0857 60.859 99.7927 55.6454 107.123 63.9492L110.429 67.6937C113.422 71.0848 114.254 75.8713 112.581 80.0739L109.225 88.504C108.141 91.2277 106.092 93.4574 103.47 94.7683L102.908 95.0494C95.0278 98.9889 85.8115 93.0279 86.1726 84.2256V84.2256L86.1269 71.9354Z" fill="black"/>
<path d="M40 100.03C40 93.4029 45.3726 88.0303 52 88.0303H68.0415C69.9847 88.0303 71.8989 88.5022 73.6195 89.4055L74.4741 89.8542C82.2078 93.9144 83.151 104.613 76.2469 109.964L74.2452 111.515C72.1416 113.146 69.5557 114.03 66.8943 114.03H52C45.3726 114.03 40 108.658 40 102.03V100.03Z" fill="black"/>
</svg>
