<svg width="128" height="129" viewBox="0 0 128 129" fill="none" xmlns="http://www.w3.org/2000/svg">
<path d="M29.2315 66.1198C28.6724 64.7312 27.9593 63.4097 27.1054 62.1802L18.7417 50.1377C16.0054 46.1978 14.7763 41.4058 15.2784 36.6353L15.5751 33.8172C16.6633 23.4787 25.4905 15.6976 35.8839 15.9153L94.4966 17.1428C104.94 17.3615 113.456 25.5796 114.046 36.0081L114.083 36.6656C114.352 41.4189 112.917 46.1123 110.035 49.9019L98.5341 65.0261C97.7732 66.0267 97.1084 67.0967 96.5484 68.2221L81.3659 98.7327C77.3196 106.864 68.3023 111.248 59.4082 109.408L55.9975 108.702C49.4404 107.346 43.9973 102.798 41.4966 96.5861L29.2315 66.1198Z" fill="#B9B9B9"/>
<path d="M19 38.1813C19 27.6045 27.5742 19.0303 38.1511 19.0303H92.0348C99.3564 19.0303 106.038 23.2029 109.251 29.7818V29.7818C112.463 36.3591 111.647 44.1919 107.148 49.9658L86.5427 76.4088C85.1902 78.1446 84.1334 80.0916 83.4149 82.1714L78.382 96.7402C76.3116 102.733 71.0141 107.029 64.7222 107.815V107.815C56.7687 108.809 49.2373 103.99 46.807 96.3523L38.3076 69.6399C37.4458 66.9313 36.0165 64.4375 34.115 62.3247L23.9162 50.9927C20.7512 47.4761 19 42.9124 19 38.1813V38.1813Z" fill="#C82400"/>
<path d="M44 35.0303H85V35.0303C87.2126 35.0303 87.9063 38.0196 85.9199 38.9941L70.9869 46.3197C68.8681 47.3591 67.5641 49.5528 67.6634 51.9107L68.8214 79.4126C68.9386 82.1976 65.0375 82.9541 64.1053 80.327V80.327C64.0354 80.13 63.9912 79.9248 63.9738 79.7165L61.2158 46.6201C61.0837 45.0349 60.0612 43.6629 58.5799 43.0833L43.5875 37.2167C42.4222 36.7607 42.7487 35.0303 44 35.0303V35.0303Z" fill="#B9B9B9"/>
</svg>
