<svg width="128" height="129" viewBox="0 0 128 129" fill="none" xmlns="http://www.w3.org/2000/svg">
<path d="M7 3.03027H68.5L78.5 8.03027H91V35.0303H78.5L68.5 39.0303H7V3.03027Z" fill="#B87333"/>
<path d="M101 10.0303H110.5C116.851 10.0303 122 15.179 122 21.5303V21.5303C122 27.8815 116.851 33.0303 110.5 33.0303H101V10.0303Z" fill="#B87333"/>
<path d="M7 88.0303H68.5L78.5 93.0303H91V120.03H78.5L68.5 124.03H7V88.0303Z" fill="#B87333"/>
<path d="M101 95.0303H110.5C116.851 95.0303 122 100.179 122 106.53V106.53C122 112.882 116.851 118.03 110.5 118.03H101V95.0303Z" fill="#B87333"/>
<path d="M7 46.0303H68.5L78.5 51.0303H91V78.0303H78.5L68.5 82.0303H7V46.0303Z" fill="#B87333"/>
<path d="M101 53.0303H110.5C116.851 53.0303 122 58.179 122 64.5303V64.5303C122 70.8815 116.851 76.0303 110.5 76.0303H101V53.0303Z" fill="#B87333"/>
</svg>
