<svg width="128" height="129" viewBox="0 0 128 129" fill="none" xmlns="http://www.w3.org/2000/svg">
<path d="M11.3912 82.1828C12.1507 78.4572 15.4277 75.7809 19.23 75.7809H49.5619C53.2397 75.7809 56.4437 78.2884 57.3275 81.8585L65.1547 113.477C65.7791 115.999 63.8703 118.438 61.2719 118.438H8.89774C6.36749 118.438 4.47292 116.118 4.97836 113.639L11.3912 82.1828Z" fill="#666666"/>
<path d="M69.0082 11.4998C70.5174 9.92242 72.6056 9.03027 74.7887 9.03027H98.9634C102.323 9.03027 104.186 12.9208 102.08 15.538L59.6592 68.254C58.1406 70.1411 55.8488 71.2386 53.4266 71.2386H21.2166C17.6955 71.2386 15.8922 67.0177 18.3264 64.4734L69.0082 11.4998Z" fill="#666666"/>
<path d="M61.8529 78.2963C61.3008 75.935 61.8495 73.4508 63.3449 71.5418L104.479 19.0284C106.054 17.0177 109.084 16.9781 110.711 18.9469L120.322 30.5762C122.518 33.2333 122.765 36.9982 120.935 39.9194L76.4751 110.892C74.5872 113.905 69.9999 113.142 69.1903 109.679L61.8529 78.2963Z" fill="#666666"/>
</svg>
