<svg width="128" height="129" viewBox="0 0 128 129" fill="none" xmlns="http://www.w3.org/2000/svg">
<path fill-rule="evenodd" clip-rule="evenodd" d="M46.4766 4.03027C36.8928 6.73706 28.2441 11.6725 21.1256 18.2415L25.3669 31.8456C21.79 36.0599 18.8992 40.875 16.8668 46.118L2.78967 49.2729C1.62012 54.0511 1 59.0452 1 64.1838C1 69.0828 1.56372 73.8501 2.62964 78.4244L16.6042 81.5564C18.5247 86.739 21.2794 91.5165 24.7054 95.7258L20.4216 109.466C27.48 116.183 36.1067 121.267 45.6963 124.112L55.2833 113.512C57.9567 113.954 60.7015 114.184 63.5001 114.184C65.9008 114.184 68.262 114.015 70.5723 113.687L80.2692 124.409C89.922 121.727 98.6348 116.786 105.803 110.192L101.566 96.6016C105.077 92.4823 107.931 87.7861 109.966 82.675L124.108 79.5055C125.344 74.6029 126 69.47 126 64.1838C126 59.4263 125.468 54.793 124.461 50.3398L110.546 47.2211C108.64 41.9336 105.867 37.0598 102.4 32.771L106.691 19.0083C99.6835 12.3071 91.1199 7.21997 81.5968 4.34387L72.04 14.9103C69.2649 14.4326 66.4116 14.1837 63.5001 14.1837C61.0016 14.1837 58.5459 14.3669 56.1458 14.7208L46.4766 4.03027ZM79.5 64.1838C79.5 73.0204 72.3365 80.1838 63.5 80.1838C54.6635 80.1838 47.5 73.0204 47.5 64.1838C47.5 55.3473 54.6635 48.1838 63.5 48.1838C72.3365 48.1838 79.5 55.3473 79.5 64.1838Z" fill="#666666"/>
</svg>
