<svg width="128" height="128" viewBox="0 0 128 128" fill="none" xmlns="http://www.w3.org/2000/svg">
<path d="M9 17C9 12.5817 12.5817 9 17 9H81C85.4183 9 89 12.5817 89 17V81C89 85.4183 85.4183 89 81 89H17C12.5817 89 9 85.4183 9 81V17Z" fill="#B9B9B9"/>
<path d="M14 22C14 17.5817 17.5817 14 22 14H86C90.4183 14 94 17.5817 94 22V86C94 90.4183 90.4183 94 86 94H22C17.5817 94 14 90.4183 14 86V22Z" fill="#666666"/>
<path d="M19 27C19 22.5817 22.5817 19 27 19H91C95.4183 19 99 22.5817 99 27V91C99 95.4183 95.4183 99 91 99H27C22.5817 99 19 95.4183 19 91V27Z" fill="black"/>
<path d="M24 32C24 27.5817 27.5817 24 32 24H96C100.418 24 104 27.5817 104 32V96C104 100.418 100.418 104 96 104H32C27.5817 104 24 100.418 24 96V32Z" fill="#0047FF"/>
<path d="M29 37C29 32.5817 32.5817 29 37 29H101C105.418 29 109 32.5817 109 37V101C109 105.418 105.418 109 101 109H37C32.5817 109 29 105.418 29 101V37Z" fill="#B9B9B9"/>
<path d="M34 42C34 37.5817 37.5817 34 42 34H106C110.418 34 114 37.5817 114 42V106C114 110.418 110.418 114 106 114H42C37.5817 114 34 110.418 34 106V42Z" fill="#666666"/>
<path d="M39 47C39 42.5817 42.5817 39 47 39H111C115.418 39 119 42.5817 119 47V111C119 115.418 115.418 119 111 119H47C42.5817 119 39 115.418 39 111V47Z" fill="black"/>
</svg>
