<svg width="128" height="129" viewBox="0 0 128 129" fill="none" xmlns="http://www.w3.org/2000/svg">
<path d="M107.089 64.4469C107.089 77.202 104.54 88.5523 100.603 96.5651C96.5379 104.838 91.6778 108.364 87.5443 108.364C83.4108 108.364 78.5507 104.838 74.486 96.5651C70.5488 88.5523 68 77.202 68 64.4469C68 51.6919 70.5488 40.3416 74.486 32.3287C78.5507 24.0563 83.4108 20.5303 87.5443 20.5303C91.6778 20.5303 96.5379 24.0563 100.603 32.3287C104.54 40.3416 107.089 51.6919 107.089 64.4469Z" stroke="black" stroke-width="8"/>
<path d="M120 64.0303C120 80.1125 116.732 94.4744 111.635 104.668C106.419 115.1 99.953 120.03 94 120.03C88.047 120.03 81.5808 115.1 76.3645 104.668C71.2678 94.4744 68 80.1125 68 64.0303C68 47.9481 71.2678 33.5861 76.3645 23.3927C81.5808 12.9601 88.047 8.03027 94 8.03027C99.953 8.03027 106.419 12.9601 111.635 23.3927C116.732 33.5861 120 47.9481 120 64.0303Z" stroke="black" stroke-width="8"/>
<path d="M60 64.0303C60 80.1125 56.7322 94.4744 51.6355 104.668C46.4192 115.1 39.953 120.03 34 120.03C28.047 120.03 21.5808 115.1 16.3645 104.668C11.2678 94.4744 8 80.1125 8 64.0303C8 47.9481 11.2678 33.5861 16.3645 23.3927C21.5808 12.9601 28.047 8.03027 34 8.03027C39.953 8.03027 46.4192 12.9601 51.6355 23.3927C56.7322 33.5861 60 47.9481 60 64.0303Z" stroke="black" stroke-width="8"/>
<path d="M59.9999 64.4469C59.9999 77.202 57.4511 88.5523 53.5139 96.5651C49.4491 104.838 44.5891 108.364 40.4556 108.364C36.322 108.364 31.462 104.838 27.3973 96.5651C23.46 88.5523 20.9113 77.202 20.9113 64.4469C20.9113 51.6919 23.46 40.3416 27.3973 32.3287C31.462 24.0563 36.322 20.5303 40.4556 20.5303C44.5891 20.5303 49.4491 24.0563 53.5139 32.3287C57.4511 40.3416 59.9999 51.6919 59.9999 64.4469Z" stroke="black" stroke-width="8"/>
<rect x="38.9368" y="64.0303" width="49.3671" height="31.6667" fill="#666666"/>
<rect x="38.9368" y="33.1969" width="49.3671" height="30.8333" fill="#C82400"/>
</svg>
