<svg width="128" height="128" viewBox="0 0 128 128" fill="none" xmlns="http://www.w3.org/2000/svg">
<path fill-rule="evenodd" clip-rule="evenodd" d="M54 35.0303H26V88.0303C26 91.344 32.268 94.0303 40 94.0303C47.732 94.0303 54 91.344 54 88.0303V35.0303Z" fill="#666666"/>
<path fill-rule="evenodd" clip-rule="evenodd" d="M64.0209 28.142C65.3275 30.3258 66 32.6665 66 35.0303H65.9558C65.9851 35.1957 66 35.3624 66 35.5303C66 40.2247 54.3594 44.0303 40 44.0303C25.6406 44.0303 14 40.2247 14 35.5303C14 35.3624 14.0149 35.1957 14.0442 35.0303H14C14 32.6665 14.6725 30.3258 15.9791 28.142C17.2858 25.9581 19.2009 23.9738 21.6152 22.3024C24.0295 20.6309 26.8958 19.305 30.0502 18.4004C33.2047 17.4959 36.5856 17.0303 40 17.0303C43.4144 17.0303 46.7953 17.4959 49.9498 18.4004C53.1042 19.305 55.9705 20.6309 58.3848 22.3024C60.7991 23.9738 62.7142 25.9581 64.0209 28.142Z" fill="#D9D9D9"/>
<path fill-rule="evenodd" clip-rule="evenodd" d="M59.1124 64.045L48.2463 89.8506L97.0926 110.419C100.147 111.705 105.055 106.97 108.055 99.8442C111.056 92.7182 111.013 85.899 107.959 84.613L59.1124 64.045Z" fill="#666666"/>
<path fill-rule="evenodd" clip-rule="evenodd" d="M56.6527 52.1362C59.1725 51.7795 61.5907 52.0681 63.7692 52.9854L63.752 53.0262C63.9159 53.0633 64.0753 53.1143 64.23 53.1794C68.5565 55.0012 67.5464 67.2064 61.9739 80.4404C56.4014 93.6744 48.3766 102.926 44.0501 101.104C43.8954 101.039 43.7476 100.961 43.6065 100.869L43.5893 100.91C41.4108 99.9927 39.5145 98.4646 38.0089 96.4128C36.5033 94.3611 35.4177 91.826 34.8142 88.9522C34.2107 86.0785 34.101 82.9224 34.4915 79.6641C34.882 76.4058 35.7649 73.1091 37.09 69.9624C38.415 66.8156 40.1561 63.8803 42.214 61.3241C44.2719 58.7679 46.6061 56.6409 49.0835 55.0644C51.5609 53.4879 54.1329 52.493 56.6527 52.1362Z" fill="#D9D9D9"/>
<path fill-rule="evenodd" clip-rule="evenodd" d="M95.8537 15.7174L87.6758 20.2788V30.1442L96.5193 35.0769L104.864 30.4223C103.931 36.9676 98.3032 42 91.5 42C84.0442 42 78 35.9558 78 28.5C78 21.0442 84.0442 15 91.5 15C93.0233 15 94.4877 15.2523 95.8537 15.7174Z" fill="#D9D9D9"/>
<rect x="85" y="39" width="11" height="48" fill="#D9D9D9"/>
<path fill-rule="evenodd" clip-rule="evenodd" d="M91 110C98.1797 110 104 104.18 104 97C104 89.8203 98.1797 84 91 84C83.8203 84 78 89.8203 78 97C78 104.18 83.8203 110 91 110ZM95.5882 89.0529L91 87.8235L86.4118 89.0529L83.0529 92.4118L81.8235 97L83.0529 101.588L86.4118 104.947L91 106.176L95.5882 104.947L98.9471 101.588L100.176 97L98.9471 92.4118L95.5882 89.0529Z" fill="#D9D9D9"/>
</svg>
