<svg width="128" height="128" viewBox="0 0 128 128" fill="none" xmlns="http://www.w3.org/2000/svg">
<path d="M58.7631 96.4498C61.3813 93.8006 66.6187 93.8006 69.2369 96.4498L91.5763 119.055C94.8118 122.329 91.7328 127 86.3394 127H41.6606C36.2672 127 33.1882 122.329 36.4237 119.055L58.7631 96.4498Z" fill="#272727"/>
<path d="M28 43.9726C28 41.2298 30.9305 39.0064 34.5455 39.0064H93.4546C97.0695 39.0064 100 41.2298 100 43.9726V98.6C100 101.343 97.0695 103.566 93.4546 103.566H34.5455C30.9305 103.566 28 101.343 28 98.6V43.9726Z" fill="#F2600E"/>
<path d="M57.2689 4.50272C60.4399 -0.149885 67.0665 -0.171209 70.265 4.46089L93.88 38.6601H33.9891L57.2689 4.50272Z" fill="#D9D9D9"/>
</svg>
