<svg width="128" height="128" viewBox="0 0 128 128" fill="none" xmlns="http://www.w3.org/2000/svg">
<path d="M10.3199 72.9377C11.5154 83.9904 25.3828 124.765 51.206 125.919C53.8361 125.678 58.4508 125.198 55.8685 125.198C53.2862 125.198 49.054 122.795 47.2608 121.594C44.8697 119.551 39.4421 114.241 36.8598 109.34C33.6319 103.213 31.4813 97.8063 37.2191 102.492C39.7853 104.587 40.0877 104.294 45.4675 106.096C50.8473 107.898 46.9021 103.213 45.4675 102.131C44.0329 101.05 42.5989 93.4814 41.8816 85.5522C41.1643 77.6231 45.4675 86.2731 51.206 93.8418C56.9446 101.41 55.8685 94.5626 55.8685 89.1564C55.8685 83.7502 60.8903 75.7333 60.8903 63.9273C60.8903 60.6836 60.3686 58.274 67.7048 69.3335C73.4426 77.9835 73.4426 82.6689 73.4426 88.796C73.4426 99.9861 72.8105 96.0732 77.7471 91.6793C90.3001 80.5064 97.2724 75.4606 82.7683 101.411C80.6606 105.181 72.3673 109.34 82.7683 107.538C103.57 94.5626 89.2234 120.873 75.2359 127C103.57 123.756 112.536 98.1668 116.481 84.8314C120.426 71.496 116.123 79.7856 110.025 86.2731C103.928 92.7605 98.5485 93.4814 97.8312 90.2376C97.1139 86.9939 107.516 79.7856 107.516 72.2169C107.516 64.6481 108.078 61.8199 105.005 51.6732C102.494 43.3836 101.06 56.3585 100.701 60.6836C100.342 65.0086 90.6587 69.694 90.3001 65.7294C89.9414 61.7648 96.3972 54.917 90.3001 35.8149C84.2029 16.7129 87.0715 48.4295 83.4849 51.6732C79.8984 54.9169 74.8779 46.267 72.726 33.6524C70.82 22.4796 61.9663 15.9921 61.9663 5.90045C61.9663 -4.19118 58.3791 2.65677 57.3031 14.1901C56.2271 25.7234 55.1512 30.0483 55.8685 41.5816C56.4423 50.8082 52.6406 54.6767 49.054 53.4753C47.739 50.9524 44.7901 32.8051 40.447 29.6879C30.404 22.4796 38.2944 26.7991 38.2944 38.6982C38.2944 69.3335 37.2184 64.6482 30.404 56.7191C23.5895 48.7899 18.2103 40.5003 22.1556 52.7544C26.1008 65.0086 37.5767 100.69 23.2309 84.8314C17.3623 78.3439 8.168 65.4891 10.3199 72.9377Z" fill="#9FB9FC"/>
</svg>
