<svg width="128" height="129" viewBox="0 0 128 129" fill="none" xmlns="http://www.w3.org/2000/svg">
<ellipse cx="114.633" cy="18.0303" rx="12" ry="13" fill="#B9B9B9"/>
<ellipse cx="18.6331" cy="60.5303" rx="12" ry="12.5" fill="#B9B9B9"/>
<ellipse cx="105.133" cy="48.0303" rx="11.5" ry="12" fill="white"/>
<circle cx="84.1331" cy="45.5303" r="12.5" fill="white"/>
<circle cx="95.6331" cy="24.0303" r="12" fill="white"/>
<ellipse cx="110.896" cy="75.059" rx="9.10418" ry="9.88283" transform="rotate(128.72 110.896 75.059)" fill="white"/>
<circle cx="103.246" cy="93.8809" r="12.3864" transform="rotate(128.72 103.246 93.8809)" fill="#B9B9B9"/>
<circle cx="88.1911" cy="105.352" r="12.3864" transform="rotate(128.72 88.1911 105.352)" fill="white"/>
<circle cx="93.9201" cy="67.07" r="12.3864" transform="rotate(128.72 93.9201 67.07)" fill="#B9B9B9"/>
<circle cx="54.2864" cy="84.5555" r="12.3864" transform="rotate(128.72 54.2864 84.5555)" fill="white"/>
<circle cx="66.589" cy="106.947" r="12.3864" transform="rotate(128.72 66.589 106.947)" fill="#B9B9B9"/>
<circle cx="31.5679" cy="78.4407" r="12.3864" transform="rotate(128.72 31.5679 78.4407)" fill="white"/>
<circle cx="41.1675" cy="104.709" r="12.3864" transform="rotate(128.72 41.1675 104.709)" fill="white"/>
<circle cx="17.4119" cy="94.7351" r="12.3864" transform="rotate(128.72 17.4119 94.7351)" fill="#B9B9B9"/>
<circle cx="69.3982" cy="63.8387" r="12.3864" transform="rotate(128.72 69.3982 63.8387)" fill="white"/>
<ellipse cx="20.1331" cy="23.0303" rx="12.5" ry="13" fill="#B9B9B9"/>
<ellipse cx="46.6331" cy="16.0303" rx="12" ry="13" fill="white"/>
<ellipse cx="33.1331" cy="42.0303" rx="11.5" ry="13" fill="white"/>
<ellipse cx="71.6331" cy="19.5303" rx="13" ry="13.5" fill="#B9B9B9"/>
<circle cx="47.1331" cy="59.5303" r="13.5" fill="#B9B9B9"/>
</svg>
