<svg width="128" height="129" viewBox="0 0 128 129" fill="none" xmlns="http://www.w3.org/2000/svg">
<path d="M26.8905 41.1198C27.152 39.2154 28.0905 37.4689 29.5342 36.1997L43.7199 23.7292C47.6136 20.3063 53.6847 21.4342 56.0893 26.0272L66.5806 46.0669C68.89 50.4782 66.6518 55.9049 61.9039 57.4055L35.0207 65.9017C29.4201 67.6718 23.8851 63.0042 24.6842 57.1852L26.8905 41.1198Z" fill="#666666"/>
<path d="M59.692 22.1109C56.9356 16.9274 60.5156 10.6393 66.38 10.3637L78.1247 9.81194C81.352 9.66031 84.3537 11.4648 85.7337 14.3862L100.667 45.9993C103.174 51.3062 99.3025 57.4162 93.4333 57.4162H79.7188C75.3005 57.4162 71.7188 53.8345 71.7188 49.4162V46.7231C71.7188 45.4133 71.3972 44.1235 70.7823 42.9671L59.692 22.1109Z" fill="#666666"/>
<path d="M20.4618 77.7504C21.374 75.6172 23.1674 73.9851 25.3768 73.2773L49.3061 65.6115C54.4687 63.9577 59.7467 67.8091 59.7467 73.2301V110.499C59.7467 114.917 56.165 118.499 51.7467 118.499H15.1584C9.41783 118.499 5.54562 112.632 7.80274 107.353L20.4618 77.7504Z" fill="#666666"/>
<path d="M62.8973 94.4643C62.8973 90.046 66.479 86.4643 70.8973 86.4643H86.5014C87.9606 86.4643 89.3919 86.0652 90.6406 85.3103L101.948 78.4736C106.612 75.6537 112.669 78.2212 113.885 83.534L119.651 108.713C120.798 113.723 116.992 118.499 111.853 118.499H70.8973C66.479 118.499 62.8973 114.917 62.8973 110.499V94.4643Z" fill="#666666"/>
<path d="M62.8973 68.6995C62.8973 64.2812 66.479 60.6995 70.8973 60.6995H95.6488C103.795 60.6995 106.729 71.4526 99.7126 75.5904L90.2974 81.1428C89.0662 81.8689 87.6629 82.2518 86.2336 82.2518H70.8973C66.479 82.2518 62.8973 78.6701 62.8973 74.2518V68.6995Z" fill="#666666"/>
</svg>
