<svg width="128" height="129" viewBox="0 0 128 129" fill="none" xmlns="http://www.w3.org/2000/svg">
<path d="M78.0381 5.98758L48.0689 46.9176L7.13894 16.9484L78.0381 5.98758Z" fill="white" stroke="#B9B9B9" stroke-width="2"/>
<path d="M90.6125 78.0683L49.6825 48.0991L79.6517 7.1691L90.6125 78.0683Z" fill="white" stroke="#B9B9B9" stroke-width="2"/>
<path d="M18.5318 90.6428L48.501 49.7128L89.431 79.682L18.5318 90.6428Z" fill="white" stroke="#B9B9B9" stroke-width="2"/>
<path d="M5.9573 18.5621L46.8873 48.5313L16.9181 89.4613L5.9573 18.5621Z" fill="white" stroke="#B9B9B9" stroke-width="2"/>
<path d="M103.017 37.6285L99.0239 52.597L84.0554 48.6045L103.017 37.6285Z" fill="white" stroke="#B9B9B9" stroke-width="2"/>
<path d="M115.925 57.1051L100.956 53.1126L104.949 38.144L115.925 57.1051Z" fill="white" stroke="#B9B9B9" stroke-width="2"/>
<path d="M96.4485 70.0134L100.441 55.0449L115.41 59.0375L96.4485 70.0134Z" fill="white" stroke="#B9B9B9" stroke-width="2"/>
<path d="M83.54 50.537L98.5085 54.5295L94.516 69.4981L83.54 50.537Z" fill="white" stroke="#B9B9B9" stroke-width="2"/>
<path d="M105.526 81.281L82.4103 90.8008L72.8905 67.685L105.526 81.281Z" fill="white" stroke="#B9B9B9" stroke-width="2"/>
<path d="M92.6919 115.766L83.1721 92.6498L106.288 83.13L92.6919 115.766Z" fill="white" stroke="#B9B9B9" stroke-width="2"/>
<path d="M58.2071 102.931L81.3228 93.4116L90.8427 116.527L58.2071 102.931Z" fill="white" stroke="#B9B9B9" stroke-width="2"/>
<path d="M71.0412 68.4464L80.5611 91.5622L57.4453 101.082L71.0412 68.4464Z" fill="white" stroke="#B9B9B9" stroke-width="2"/>
</svg>
