<svg width="128" height="129" viewBox="0 0 128 129" fill="none" xmlns="http://www.w3.org/2000/svg">
<path d="M23.2271 42.66C22.1818 41.4734 21.5117 40.0036 21.3013 38.4362L19.3158 23.643C18.5915 18.2459 23.3538 13.718 28.7075 14.7137L42.6475 17.3063C44.4065 17.6334 46.0051 18.5408 47.1878 19.8834L114.656 96.4755C116.066 98.0772 115.971 100.504 114.439 101.991L96.4494 119.443C94.8096 121.033 92.1727 120.93 90.6626 119.216L23.2271 42.66Z" fill="#47606F"/>
<path d="M115.309 97.2321C118.581 100.862 116.507 109.58 109.754 115.667C103.001 121.755 94.6599 123.71 91.3879 120.08C88.116 116.45 91.152 108.61 97.9053 102.522C104.659 96.4349 112.037 93.6022 115.309 97.2321Z" fill="#47606F"/>
<ellipse cx="39.8138" cy="100.513" rx="18.1878" ry="17.4024" fill="#47606F"/>
</svg>
