<svg width="128" height="129" viewBox="0 0 128 129" fill="none" xmlns="http://www.w3.org/2000/svg">
<path fill-rule="evenodd" clip-rule="evenodd" d="M46.9766 3.84106C37.3928 6.54785 28.7441 11.4833 21.6256 18.0522L25.8669 31.6564C22.29 35.8707 19.3992 40.6858 17.3668 45.9288L3.28967 49.0837C2.12012 53.8619 1.5 58.856 1.5 63.9946C1.5 68.8936 2.06372 73.6609 3.12964 78.2352L17.1042 81.3672C19.0247 86.5498 21.7794 91.3273 25.2054 95.5366L20.9216 109.277C27.98 115.994 36.6067 121.078 46.1963 123.922L55.7833 113.323C58.4567 113.765 61.2015 113.995 64.0001 113.995C66.4008 113.995 68.762 113.825 71.0723 113.498L80.7692 124.219C90.422 121.537 99.1348 116.597 106.303 110.003L102.066 96.4124C105.577 92.2931 108.431 87.5969 110.466 82.4858L124.608 79.3163C125.844 74.4137 126.5 69.2808 126.5 63.9946C126.5 59.2371 125.968 54.6038 124.961 50.1506L111.046 47.0319C109.14 41.7444 106.367 36.8706 102.9 32.5818L107.191 18.8191C100.183 12.1179 91.6199 7.03076 82.0968 4.15466L72.54 14.7211C69.7649 14.2434 66.9116 13.9945 64.0001 13.9945C61.5016 13.9945 59.0459 14.1777 56.6458 14.5316L46.9766 3.84106ZM80 63.9946C80 72.8312 72.8365 79.9946 64 79.9946C55.1635 79.9946 48 72.8312 48 63.9946C48 55.1581 55.1635 47.9946 64 47.9946C72.8365 47.9946 80 55.1581 80 63.9946Z" fill="#B9B9B9"/>
</svg>
