<svg width="128" height="129" viewBox="0 0 128 129" fill="none" xmlns="http://www.w3.org/2000/svg">
<path d="M115.5 101.947C115.5 104.236 114.18 106.487 111.633 108.601C109.09 110.713 105.379 112.637 100.75 114.262C91.4967 117.511 78.6803 119.53 64.5 119.53C50.3197 119.53 37.5033 117.511 28.2497 114.262C23.6205 112.637 19.91 110.713 17.3665 108.601C14.8199 106.487 13.5 104.236 13.5 101.947C13.5 99.658 14.8199 97.4069 17.3665 95.2928C19.91 93.1813 23.6205 91.2573 28.2497 89.6319C37.5033 86.3826 50.3197 84.3636 64.5 84.3636C78.6803 84.3636 91.4967 86.3826 100.75 89.6319C105.379 91.2573 109.09 93.1813 111.633 95.2928C114.18 97.4069 115.5 99.658 115.5 101.947Z" fill="#B9B9B9" stroke="#B9B9B9"/>
<path fill-rule="evenodd" clip-rule="evenodd" d="M105 36.0303H23V100.03H25C25 106.658 42.6848 112.03 64.5 112.03C86.3152 112.03 104 106.658 104 100.03H105V36.0303Z" fill="#0F0F0F" fill-opacity="0.3"/>
<path d="M115.5 26.1136C115.5 28.4026 114.18 30.6537 111.633 32.7677C109.09 34.8793 105.379 36.8033 100.75 38.4287C91.4967 41.6779 78.6803 43.6969 64.5 43.6969C50.3197 43.6969 37.5033 41.6779 28.2497 38.4287C23.6205 36.8033 19.91 34.8793 17.3665 32.7677C14.8199 30.6537 13.5 28.4026 13.5 26.1136C13.5 23.8246 14.8199 21.5735 17.3665 19.4595C19.91 17.3479 23.6205 15.424 28.2497 13.7985C37.5033 10.5493 50.3197 8.53027 64.5 8.53027C78.6803 8.53027 91.4967 10.5493 100.75 13.7985C105.379 15.424 109.09 17.3479 111.633 19.4595C114.18 21.5735 115.5 23.8246 115.5 26.1136Z" fill="#B9B9B9" stroke="#B9B9B9"/>
<line x1="19" y1="101.864" x2="19" y2="26.0303" stroke="#B9B9B9" stroke-width="12"/>
<line x1="110" y1="102.53" x2="110" y2="26.6969" stroke="#B9B9B9" stroke-width="12"/>
</svg>
