<svg width="128" height="129" viewBox="0 0 128 129" fill="none" xmlns="http://www.w3.org/2000/svg">
<rect x="57.2932" y="77.5022" width="37.6996" height="38.01" rx="4" fill="#B87333"/>
<path d="M97.4858 79.8251C97.4858 78.3887 98.2561 77.0625 99.5037 76.3508L109.17 70.8361C111.837 69.3148 115.152 71.2404 115.152 74.3105V103.11C115.152 104.547 114.382 105.873 113.134 106.585L103.468 112.099C100.801 113.62 97.4858 111.695 97.4858 108.625V79.8251Z" fill="#B87333"/>
<path d="M75.7561 65.3529C76.2534 65.1401 76.7888 65.0304 77.3297 65.0304L99.6795 65.0303C103.864 65.0303 105.239 70.6423 101.529 72.577L97.5781 74.6375C97.0071 74.9353 96.3725 75.0908 95.7285 75.0908H72.5148C68.1637 75.0908 66.9409 69.1251 70.9411 67.4134L75.7561 65.3529Z" fill="#B87333"/>
<rect x="48.2932" y="24.5022" width="37.6996" height="38.01" rx="4" fill="#B87333"/>
<path d="M88.4858 26.8251C88.4858 25.3887 89.2561 24.0625 90.5037 23.3508L100.17 17.8361C102.837 16.3148 106.152 18.2404 106.152 21.3105V50.1101C106.152 51.5466 105.382 52.8727 104.134 53.5845L94.4679 59.0992C91.8013 60.6205 88.4858 58.6949 88.4858 55.6248V26.8251Z" fill="#B87333"/>
<path d="M66.7561 12.3529C67.2534 12.1401 67.7888 12.0304 68.3297 12.0304L90.6795 12.0303C94.8635 12.0303 96.239 17.6423 92.5291 19.577L88.5781 21.6375C88.0071 21.9353 87.3725 22.0908 86.7285 22.0908H63.5148C59.1637 22.0908 57.9409 16.1251 61.9411 14.4134L66.7561 12.3529Z" fill="#B87333"/>
<rect x="16.2932" y="77.5022" width="37.6996" height="38.01" rx="4" fill="#B87333"/>
<path d="M34.7561 65.3529C35.2534 65.1401 35.7888 65.0304 36.3297 65.0304L58.6795 65.0303C62.8635 65.0303 64.239 70.6423 60.5291 72.577L56.5781 74.6375C56.0071 74.9353 55.3725 75.0908 54.7285 75.0908H31.5148C27.1637 75.0908 25.9409 69.1251 29.9411 67.4134L34.7561 65.3529Z" fill="#B87333"/>
</svg>
