<svg width="128" height="128" viewBox="0 0 128 128" fill="none" xmlns="http://www.w3.org/2000/svg">
<path d="M3 24C3 12.9543 11.9543 4 23 4H64V64V124H23C11.9543 124 3 115.046 3 104V24Z" fill="#80AA87"/>
<path d="M64 4H105C116.046 4 125 12.9543 125 24V104C125 115.046 116.046 124 105 124H64V4Z" fill="#8B3103"/>
<path d="M47.2479 41.6858C55.1389 29.5866 72.861 29.5866 80.7521 41.6858L96.6581 66.0744C105.334 79.3778 95.7887 97 79.9061 97H48.094C32.2113 97 22.6655 79.3778 31.3419 66.0744L47.2479 41.6858Z" fill="black"/>
</svg>
