<svg width="128" height="129" viewBox="0 0 128 129" fill="none" xmlns="http://www.w3.org/2000/svg">
<path d="M52.7672 32.219C53.1834 28.136 56.6218 25.0303 60.7259 25.0303H63.5473C67.5347 25.0303 70.9134 27.9666 71.4692 31.9151L83.7168 118.915C84.3945 123.729 80.6567 128.03 75.7949 128.03H51.857C47.1179 128.03 43.4176 123.934 43.8982 119.219L52.7672 32.219Z" fill="#B87333"/>
<path d="M57.0162 36.5299C60.069 31.0659 67.931 31.0659 70.9838 36.5298L96.3211 81.8782C99.3006 87.2107 95.4458 93.7803 89.3373 93.7803H38.6627C32.5542 93.7803 28.6994 87.2108 31.6788 81.8782L57.0162 36.5299Z" fill="#278208"/>
<path d="M56.4142 9.58032C59.594 4.96922 66.406 4.96922 69.5858 9.58032L91.5902 41.4886C95.25 46.7957 91.451 54.0303 85.0044 54.0303H40.9956C34.549 54.0303 30.75 46.7957 34.4098 41.4886L56.4142 9.58032Z" fill="#03AA00"/>
</svg>
