<svg width="128" height="129" viewBox="0 0 128 129" fill="none" xmlns="http://www.w3.org/2000/svg">
<ellipse cx="63.9979" cy="25.0935" rx="16.8179" ry="17.2808" fill="black"/>
<rect x="60.9121" y="38.6713" width="6.17175" height="39.1903" fill="black"/>
<rect x="25.1162" y="47.0031" width="35.7959" height="6.17175" fill="black"/>
<rect x="67.0839" y="47.0031" width="35.8" height="6.17175" fill="black"/>
<rect x="50.1302" y="118.816" width="43.819" height="6.17175" transform="rotate(-75.7558 50.1302 118.816)" fill="black"/>
<rect x="66.8942" y="76.3434" width="43.819" height="6.17175" transform="rotate(75.76 66.8942 76.3434)" fill="black"/>
<path d="M73 9.03027C114 14.5302 73.5001 84.5304 114.505 90.0303" stroke="white" stroke-width="4"/>
<path d="M69.4036 11.5303C57.5 47.0303 131 46.0303 118.159 86.7991" stroke="white" stroke-width="4"/>
<path d="M107 62.0302L99.0001 67.0302M112.5 66.0302L106.25 70.0302L100 74.0303" stroke="white" stroke-width="4"/>
<path d="M105 80.0303L115.073 74.0305" stroke="white" stroke-width="4"/>
<path d="M80.427 14.8786L72.427 19.8786M85.927 18.8786L79.6769 22.8786L73.4269 26.8787" stroke="white" stroke-width="4"/>
<path d="M78.4269 32.8787L88.4998 26.8789" stroke="white" stroke-width="4"/>
</svg>
