<svg width="128" height="128" viewBox="0 0 128 128" fill="none" xmlns="http://www.w3.org/2000/svg">
<path d="M15.9781 69.7295C13.6156 66.5449 13.6156 62.1895 15.9781 59.0049L44.4117 20.6776C46.7031 17.5889 50.704 16.2975 54.3689 17.4636L100.613 32.1789C104.347 33.3673 106.884 36.8359 106.884 40.7551V87.9793C106.884 91.8985 104.347 95.3671 100.613 96.5555L54.3689 111.271C50.704 112.437 46.7031 111.146 44.4117 108.057L15.9781 69.7295Z" fill="#0047FF"/>
<circle cx="64" cy="64" r="35" fill="#D9D9D9"/>
<path d="M66.8284 37.1716C65.2663 35.6095 62.7337 35.6095 61.1716 37.1716L35.7157 62.6274C34.1536 64.1895 34.1536 66.7222 35.7157 68.2843C37.2778 69.8464 39.8105 69.8464 41.3726 68.2843L64 45.6569L86.6274 68.2843C88.1895 69.8464 90.7222 69.8464 92.2843 68.2843C93.8464 66.7222 93.8464 64.1895 92.2843 62.6274L66.8284 37.1716ZM68 90V40H60V90H68Z" fill="black"/>
<circle cx="64" cy="91" r="4" fill="black"/>
</svg>
